<svg width="250" height="68" viewBox="0 0 250 68" fill="none" xmlns="http://www.w3.org/2000/svg">
<g clip-path="url(#clip0_242_3640)">
<path d="M187.321 29.0877C187.156 28.9221 187.046 28.7566 187.046 28.4806C187.046 28.315 187.101 28.1494 187.211 28.039C187.321 27.9286 187.431 27.8182 187.596 27.763C187.761 27.7079 187.926 27.6527 188.146 27.6527C188.366 27.6527 188.586 27.5975 188.751 27.5975C188.861 27.5975 188.971 27.5975 189.026 27.5975C189.136 27.5975 189.246 27.5975 189.301 27.5975V28.4806C189.246 28.591 189.191 28.6462 189.136 28.7566C189.081 28.8669 188.971 28.9221 188.861 29.0325C188.751 29.0877 188.641 29.1981 188.476 29.2533C188.311 29.3085 188.146 29.3085 187.981 29.3085C187.706 29.3085 187.486 29.2533 187.321 29.0877ZM186.717 25.776C186.826 25.7208 186.936 25.6656 187.046 25.6105C187.156 25.5553 187.321 25.5001 187.431 25.5001C187.596 25.4449 187.706 25.4449 187.871 25.4449C187.981 25.4449 188.146 25.4449 188.256 25.4449C188.641 25.4449 188.916 25.5001 189.081 25.6656C189.246 25.8312 189.301 26.1072 189.301 26.4936C189.301 26.6592 189.301 26.8247 189.246 27.0455C189.136 27.0455 189.026 27.0455 188.971 27.0455H188.696C188.311 27.0455 187.981 27.0455 187.651 27.1007C187.321 27.1559 187.046 27.2663 186.826 27.3767C186.607 27.4871 186.442 27.6527 186.277 27.8734C186.167 28.0942 186.112 28.315 186.112 28.6462C186.112 28.8669 186.167 29.0877 186.222 29.2533C186.277 29.4189 186.387 29.5845 186.552 29.6949C186.716 29.8053 186.881 29.9156 187.046 29.9708C187.211 30.026 187.431 30.0812 187.651 30.0812C187.871 30.0812 188.091 30.0812 188.256 30.026C188.421 29.9708 188.586 29.9156 188.696 29.8604C188.806 29.8053 188.916 29.6949 189.026 29.5845C189.136 29.4741 189.191 29.4189 189.246 29.3085H189.301L189.521 30.026H190.125C190.07 29.8053 190.015 29.6397 190.015 29.3637C190.015 29.1429 189.96 28.8669 189.96 28.6462C189.96 28.315 189.96 27.9286 190.015 27.5423C190.015 27.1559 190.07 26.7143 190.07 26.328C190.07 26.1624 190.07 25.9416 190.015 25.776C189.96 25.6105 189.905 25.3897 189.795 25.2793C189.686 25.1137 189.521 25.0033 189.301 24.8929C189.081 24.7825 188.806 24.7273 188.421 24.7273C188.036 24.7273 187.651 24.7825 187.321 24.8377C186.991 24.8929 186.662 25.0585 186.387 25.1689L186.717 25.776ZM180.998 29.9708H181.823V24.7273H177.865V29.9708H178.689V25.4449H180.998V29.9708ZM172.311 29.9708H173.136V24.7273H169.177V29.9708H170.002V25.4449H172.311V29.9708ZM161.315 24.7273H160.38L162.47 29.9708C162.36 30.4676 162.195 30.854 162.03 31.0195C161.865 31.1851 161.645 31.3507 161.48 31.3507C161.37 31.3507 161.315 31.3507 161.205 31.2955L161.04 32.013C161.205 32.0682 161.425 32.1234 161.645 32.1234C161.865 32.1234 162.085 32.0682 162.25 31.9027C162.415 31.7371 162.58 31.5715 162.745 31.2955C162.91 31.0195 163.02 30.7436 163.13 30.4124C163.239 30.0812 163.349 29.7501 163.459 29.4189L164.999 24.7273H164.174L163.185 28.0942L162.965 29.0877H162.91L162.635 28.0942L161.315 24.7273ZM154.992 25.5001C155.157 25.6105 155.322 25.7208 155.432 25.8864C155.542 26.052 155.597 26.2728 155.652 26.4936C155.707 26.7143 155.707 26.9903 155.707 27.2663C155.707 27.9838 155.542 28.4806 155.267 28.8669C154.992 29.2533 154.607 29.4189 154.113 29.4189C153.838 29.4189 153.618 29.4189 153.453 29.3637C153.288 29.3085 153.178 29.2533 153.013 29.1429V26.4936C153.123 26.1072 153.233 25.8312 153.453 25.6656C153.673 25.5001 153.948 25.3897 154.278 25.3897C154.607 25.3345 154.827 25.3897 154.992 25.5001ZM152.243 32.0682H153.068V29.9156C153.233 29.9708 153.398 30.026 153.563 30.0812C153.728 30.1364 153.893 30.1364 154.168 30.1364C154.552 30.1364 154.882 30.0812 155.157 29.9156C155.432 29.8053 155.707 29.5845 155.927 29.3637C156.147 29.1429 156.312 28.8117 156.422 28.4806C156.532 28.1494 156.587 27.7079 156.587 27.2663C156.587 26.328 156.422 25.6656 156.092 25.2241C155.762 24.8377 155.212 24.6169 154.552 24.6169C154.223 24.6169 153.948 24.6721 153.673 24.8377C153.398 24.9481 153.233 25.1689 153.068 25.3897H153.013L152.848 24.7825H152.298V32.0682H152.243ZM148.175 24.7273H145.151V29.9708H145.975V25.4449H148.175V24.7273ZM133.715 27.3215C133.55 27.3215 133.495 27.3215 133.385 27.3215C133.33 27.3215 133.275 27.3215 133.22 27.3215H133.11H133.055C132.67 27.3215 132.34 27.2111 132.065 27.0455C131.845 26.8799 131.68 26.6592 131.68 26.328C131.68 25.9968 131.79 25.7208 132.01 25.5553C132.23 25.3897 132.56 25.3345 133 25.3345C133.11 25.3345 133.165 25.3345 133.275 25.3345C133.385 25.3345 133.495 25.3897 133.55 25.3897V27.3215H133.715ZM133.715 29.9708H134.539V24.7825C134.319 24.7273 134.099 24.7273 133.879 24.6721C133.66 24.6169 133.44 24.6169 133.165 24.6169C132.835 24.6169 132.505 24.6721 132.23 24.7273C131.955 24.7825 131.735 24.8929 131.515 25.0585C131.295 25.2241 131.185 25.3897 131.075 25.6105C130.965 25.8312 130.91 26.1072 130.91 26.4384C130.91 26.8247 131.02 27.1559 131.295 27.3767C131.57 27.5975 131.845 27.763 132.23 27.8182L131.79 28.2046L130.526 29.9708H131.515L132.89 27.9286L133.715 27.8182V29.9708ZM123.378 29.0877C123.213 28.9221 123.103 28.7566 123.103 28.4806C123.103 28.315 123.158 28.1494 123.268 28.039C123.378 27.9286 123.488 27.8182 123.653 27.763C123.818 27.7079 123.983 27.6527 124.203 27.6527C124.423 27.6527 124.643 27.5975 124.808 27.5975C124.918 27.5975 125.027 27.5975 125.082 27.5975C125.192 27.5975 125.302 27.5975 125.357 27.5975V28.4806C125.302 28.591 125.247 28.6462 125.192 28.7566C125.137 28.8669 125.027 28.9221 124.918 29.0325C124.808 29.0877 124.698 29.1981 124.533 29.2533C124.368 29.3085 124.203 29.3085 124.038 29.3085C123.818 29.3085 123.598 29.2533 123.378 29.0877ZM122.828 25.776C122.938 25.7208 123.048 25.6656 123.158 25.6105C123.268 25.5553 123.433 25.5001 123.543 25.5001C123.708 25.4449 123.818 25.4449 123.983 25.4449C124.093 25.4449 124.258 25.4449 124.368 25.4449C124.753 25.4449 125.027 25.5001 125.192 25.6656C125.357 25.8312 125.412 26.1072 125.412 26.4936C125.412 26.6592 125.412 26.8247 125.357 27.0455C125.247 27.0455 125.137 27.0455 125.082 27.0455H124.808C124.423 27.0455 124.093 27.0455 123.763 27.1007C123.433 27.1559 123.158 27.2663 122.938 27.3767C122.718 27.4871 122.553 27.6527 122.388 27.8734C122.278 28.0942 122.223 28.315 122.223 28.6462C122.223 28.8669 122.278 29.0877 122.333 29.2533C122.388 29.4189 122.498 29.5845 122.663 29.6949C122.828 29.8053 122.993 29.9156 123.158 29.9708C123.323 30.026 123.543 30.0812 123.763 30.0812C123.983 30.0812 124.203 30.0812 124.368 30.026C124.533 29.9708 124.698 29.9156 124.808 29.8604C124.918 29.8053 125.027 29.6949 125.137 29.5845C125.247 29.4741 125.302 29.4189 125.357 29.3085H125.412L125.632 30.026H126.237C126.182 29.8053 126.127 29.6397 126.127 29.3637C126.127 29.1429 126.072 28.8669 126.072 28.6462C126.072 28.315 126.072 27.9286 126.127 27.5423C126.127 27.1559 126.182 26.7143 126.182 26.328C126.182 26.1624 126.182 25.9416 126.127 25.776C126.072 25.6105 126.017 25.3897 125.907 25.2793C125.797 25.1137 125.632 25.0033 125.412 24.8929C125.192 24.7825 124.918 24.7273 124.533 24.7273C124.148 24.7273 123.763 24.7825 123.433 24.8377C123.103 24.8929 122.773 25.0585 122.498 25.1689L122.828 25.776ZM117.11 29.9708H117.935V24.7273H117.11V26.9351H114.746V24.7273H113.921V29.9708H114.746V27.6527H117.11V29.9708ZM108.368 29.9708H109.193V24.7273H108.368V26.9351H106.004V24.7273H105.179V29.9708H106.004V27.6527H108.368V29.9708ZM98.4165 25.3345C98.6914 25.3345 98.9114 25.3897 99.0763 25.5001C99.2413 25.6105 99.4062 25.776 99.5162 25.9416C99.6261 26.1072 99.7361 26.328 99.7361 26.604C99.7911 26.8247 99.7911 27.1007 99.7911 27.3767C99.7911 28.7014 99.2962 29.4189 98.3615 29.3637C98.0866 29.3637 97.8667 29.3085 97.7018 29.1981C97.5368 29.0877 97.3719 28.9221 97.2619 28.7566C97.152 28.591 97.042 28.3702 97.042 28.0942C96.987 27.8734 96.987 27.5975 96.987 27.3215C96.987 25.9968 97.4819 25.3345 98.4165 25.3345ZM96.2723 28.4806C96.3822 28.8117 96.4922 29.0877 96.7121 29.3637C96.8771 29.5845 97.152 29.8053 97.4269 29.9156C97.7018 30.026 98.0317 30.1364 98.4715 30.1364C99.1863 30.1364 99.7911 29.9156 100.176 29.4189C100.561 28.9221 100.781 28.2598 100.781 27.3767C100.781 26.9903 100.726 26.604 100.671 26.2728C100.561 25.9416 100.451 25.6656 100.231 25.3897C100.066 25.1689 99.7911 24.9481 99.5162 24.8377C99.2413 24.7273 98.9114 24.6169 98.5265 24.6169C97.8117 24.6169 97.2069 24.8377 96.8221 25.3345C96.4372 25.8312 96.2173 26.4936 96.2173 27.3767C96.1623 27.763 96.1623 28.1494 96.2723 28.4806ZM90.8291 29.9708H91.6538V24.7273H91.159L88.7948 27.8734L88.4099 28.5358H88.355L88.4099 27.9286V24.7273H87.5852V29.9708H88.08L90.4442 26.8799L90.8841 26.2176H90.9391L90.8841 26.8799V29.9708H90.8291ZM83.3517 29.2533H82.5819V24.7273H81.7572V29.2533H79.503V24.7273H78.6782V29.9708H82.6369L82.8018 31.2955H83.3517V29.2533ZM71.0908 29.0877C70.9259 28.9221 70.8159 28.7566 70.8159 28.4806C70.8159 28.315 70.8709 28.1494 70.9809 28.039C71.0908 27.9286 71.2008 27.8182 71.3657 27.763C71.5307 27.7079 71.6956 27.6527 71.9155 27.6527C72.1355 27.6527 72.3554 27.5975 72.5203 27.5975C72.6303 27.5975 72.7403 27.5975 72.7952 27.5975C72.9052 27.5975 73.0152 27.5975 73.0701 27.5975V28.4806C73.0152 28.591 72.9602 28.6462 72.9052 28.7566C72.8502 28.8669 72.7403 28.9221 72.6303 29.0325C72.5203 29.0877 72.4104 29.1981 72.2454 29.2533C72.0805 29.3085 71.9155 29.3085 71.7506 29.3085C71.5307 29.3085 71.3108 29.2533 71.0908 29.0877ZM70.541 25.776C70.651 25.7208 70.7609 25.6656 70.8709 25.6105C70.9809 25.5553 71.1458 25.5001 71.2558 25.5001C71.4207 25.4449 71.5307 25.4449 71.6956 25.4449C71.8056 25.4449 71.9705 25.4449 72.0805 25.4449C72.4654 25.4449 72.7403 25.5001 72.9052 25.6656C73.0702 25.8312 73.1251 26.1072 73.1251 26.4936C73.1251 26.6592 73.1251 26.8247 73.0701 27.0455C72.9602 27.0455 72.8502 27.0455 72.7952 27.0455H72.5753C72.1905 27.0455 71.8606 27.0455 71.5307 27.1007C71.2008 27.1559 70.9259 27.2663 70.706 27.3767C70.486 27.4871 70.3211 27.6527 70.1561 27.8734C70.0462 28.0942 69.9912 28.315 69.9912 28.6462C69.9912 28.8669 70.0462 29.0877 70.1012 29.2533C70.1561 29.4189 70.2661 29.5845 70.4311 29.6949C70.596 29.8053 70.7609 29.9156 70.9259 29.9708C71.0908 30.026 71.3108 30.0812 71.5307 30.0812C71.7506 30.0812 71.9705 30.0812 72.1355 30.026C72.3004 29.9708 72.4654 29.9156 72.5753 29.8604C72.6853 29.8053 72.7952 29.6949 72.9052 29.5845C73.0152 29.4741 73.0702 29.4189 73.1251 29.3085H73.1801L73.4 30.026H74.0048C73.9499 29.8053 73.8949 29.6397 73.8949 29.3637C73.8949 29.1429 73.8399 28.8669 73.8399 28.6462C73.8399 28.315 73.8399 27.9286 73.8949 27.5423C73.8949 27.1559 73.9499 26.7143 73.9499 26.328C73.9499 26.1624 73.9498 25.9416 73.8949 25.776C73.8399 25.6105 73.7849 25.3897 73.6749 25.2793C73.565 25.1137 73.4 25.0033 73.1801 24.8929C72.9602 24.7825 72.6853 24.7273 72.3004 24.7273C71.9155 24.7273 71.5307 24.7825 71.2008 24.8377C70.8709 24.8929 70.541 25.0585 70.2661 25.1689L70.541 25.776ZM65.2628 29.9708H66.3075L64.5481 27.5975L63.9982 27.1559L64.4381 26.8247L66.0325 24.7273H65.1528L63.5034 26.9351L63.0636 27.1007V24.7273H62.2388V29.9708H63.0636V27.5975H63.5584L65.2628 29.9708ZM56.6307 29.9708H57.4555V24.7273H56.9606L54.5964 27.8734L54.2116 28.5358H54.1566L54.2116 27.9286V24.7273H53.3868V29.9708H53.8817L56.2459 26.8799L56.6857 26.2176H56.7407L56.6857 26.8799V29.9708H56.6307ZM47.8337 29.9708H48.6585V24.7273H47.8337V26.9351H45.4695V24.7273H44.6448V29.9708H45.4695V27.6527H47.8337V29.9708ZM36.7825 24.7273H35.8478L37.9371 29.9708C37.8271 30.4676 37.6622 30.854 37.4972 31.0195C37.3323 31.1851 37.1124 31.3507 36.9474 31.3507C36.8375 31.3507 36.7825 31.3507 36.6725 31.2955L36.5076 32.013C36.6725 32.0682 36.8925 32.1234 37.1124 32.1234C37.3323 32.1234 37.5522 32.0682 37.7172 31.9027C37.8821 31.7371 38.0471 31.5715 38.212 31.2955C38.3769 31.0195 38.4869 30.7436 38.5969 30.4124C38.7068 30.0812 38.8168 29.7501 38.9268 29.4189L40.4662 24.7273H39.6415L38.6519 28.1494L38.4319 29.1429H38.377L38.0471 28.1494L36.7825 24.7273ZM30.8445 29.9708H31.6692V24.7273H30.8445L29.47 27.0455L29.1401 27.7079L28.8102 27.1007L27.3257 24.7825H26.501V30.026H27.2707V26.8799L27.1608 25.8864H27.2157L27.5456 26.7143L28.8652 28.7566H29.1401L30.4047 26.7143L30.7895 25.8864H30.8445L30.7895 26.8799V29.9708H30.8445ZM21.0029 29.9708H21.8276V24.7273H21.0029L19.6283 27.0455L19.2984 27.6527L18.9685 27.0455L17.4841 24.7273H16.6593V29.9708H17.4291V26.8247L17.3191 25.8312H17.3741L17.704 26.6592L19.0235 28.7014H19.2984L20.563 26.6592L20.9479 25.8312H21.0029L20.9479 26.8247V29.9708H21.0029ZM9.95162 25.3345C10.2265 25.3345 10.4464 25.3897 10.6114 25.5001C10.7763 25.6105 10.9413 25.776 11.0512 25.9416C11.1612 26.1072 11.2712 26.328 11.2712 26.604C11.3261 26.8247 11.3261 27.1007 11.3261 27.3767C11.3261 28.7014 10.8313 29.4189 9.89663 29.3637C9.62173 29.3637 9.4018 29.3085 9.23686 29.1981C9.07191 29.0877 8.90697 28.9221 8.79701 28.7566C8.68705 28.591 8.57708 28.3702 8.57708 28.0942C8.5221 27.8734 8.5221 27.5975 8.5221 27.3215C8.5221 25.9968 9.01693 25.3345 9.95162 25.3345ZM7.80734 28.4806C7.91731 28.8117 8.02727 29.0877 8.2472 29.3637C8.41214 29.5845 8.68705 29.8053 8.96195 29.9156C9.23686 30.026 9.56675 30.1364 10.0066 30.1364C10.7214 30.1364 11.3261 29.9156 11.711 29.4189C12.0959 28.9221 12.3158 28.2598 12.3158 27.3767C12.3158 26.9903 12.2608 26.604 12.2058 26.2728C12.0959 25.9416 11.9859 25.6656 11.766 25.3897C11.6011 25.1689 11.3261 24.9481 11.0512 24.8377C10.7763 24.7273 10.4464 24.6169 10.0616 24.6169C9.34682 24.6169 8.74203 24.8377 8.35716 25.3345C7.86233 25.776 7.69738 26.4936 7.69738 27.3767C7.69738 27.763 7.69738 28.1494 7.80734 28.4806ZM3.07895 29.9708H4.1236L2.3642 27.5975L1.81438 27.1559L2.25423 26.8247L3.84869 24.7273H2.96899L1.31955 26.9351L0.879701 27.1007V24.7273H0V29.9708H0.82472V27.5975H1.31955L3.07895 29.9708Z" fill="black"/>
<path d="M176.71 68H189.85L190.785 64.9643H180.558V57.1818H188.201L189.135 54.1461H180.558V46.9708H190.235V43.9351H176.71V47.4676V68ZM170.057 43.9351H166.648V47.4124V61.1559L165.054 59.0033L150.099 43.9351H148.119V47.4124V67.9448H151.528V65.0195V50.6689L153.123 52.8214L168.188 68H170.057V65.1299V43.9351ZM141.467 43.9351H137.618V47.4676V67.9448H141.467V65.0195V43.9351ZM118.429 68H133.219L134.099 64.5779H122.498V38.1948H118.429V42.3344V68ZM102.21 50.8344L102.705 49.4546L103.09 50.8344L106.224 58.6721H98.8011L102.21 50.8344ZM91.3237 68H94.9524L97.5915 61.763H107.433L110.017 68H114.361L112.381 63.75L104.354 43.9903H101.825L91.3237 68ZM87.8049 43.9351H83.9562V47.4676V67.9448H87.8049V65.0195V43.9351ZM66.912 46.9156C71.5304 46.9156 74.7743 51.0552 74.7743 56.0227C74.7743 60.9903 71.5304 65.0195 66.912 65.0195H61.7987V46.9156H66.912ZM58.005 43.9351V47.4676V67.9448H66.4171C74.0595 67.9448 78.8979 62.5909 78.8979 55.7468C78.8979 47.5227 73.2898 43.8799 67.6267 43.8799H58.005V43.9351ZM38.3767 68H51.5172L52.4519 64.9643H42.1704V57.1818H49.8128L50.7475 54.1461H42.1704V46.9708H51.8471V43.9351H38.3767V47.4676V68ZM15.5044 64.6331L24.9062 50.2273L26.5007 47.0812V68.0552H30.5693V64.6883V38.1948H28.0402L15.7244 57.5682L2.41888 38.1948H0.0546875V42.3344V67.9448H3.73844V64.5779V47.1916L5.22293 50.1721L15.5044 64.6331Z" fill="black"/>
<path d="M225.038 0.0551758C211.238 0.0551758 200.076 11.2597 200.076 25.1136C200.076 32.8961 203.595 39.8506 209.148 44.4318C207.279 48.5162 203.925 52.1591 198.207 56.0227C204.255 55.0844 209.918 51.8279 214.317 47.7435C217.56 49.2889 221.189 50.1721 224.983 50.1721C238.783 50.1721 249.944 38.9675 249.944 25.1136C249.944 11.2597 238.838 0.0551758 225.038 0.0551758ZM216.681 25.224C215.801 18.987 211.622 17.0552 204.2 14.1299C214.042 14.9578 222.069 18.6006 222.069 25.224H216.681ZM225.203 28.0941H230.866C231.526 32.7305 233.065 35.711 238.673 38.3052C231.801 38.3052 225.093 32.1234 225.203 28.0941ZM230.921 25.224H225.203C226.632 18.6006 235.924 14.9026 246.591 14.1299C238.068 17.0552 233.34 18.987 230.921 25.224Z" fill="#F37B20"/>
</g>
<defs>
<clipPath id="clip0_242_3640">
<rect width="250" height="68" fill="white"/>
</clipPath>
</defs>
</svg>
