<svg width="906" height="108" viewBox="0 0 906 108" fill="none" xmlns="http://www.w3.org/2000/svg">
<path d="M38.208 78.312C34.432 76.456 30.656 73.704 26.88 70.056C20.992 64.232 16.256 58.152 12.672 51.816C12.416 52.072 11.936 52.488 11.232 53.064C10.592 53.64 10.176 54.024 9.984 54.216C8.768 57.608 7.84 60.488 7.2 62.856C6.688 64.84 6.048 67.464 5.28 70.728C4.512 74.056 4.032 76.04 3.84 76.68C3.52 77.256 2.816 77.544 1.728 77.544C0.704 77.544 -0.352 77.224 -1.44 76.584C-2.528 75.944 -3.04 75.24 -2.976 74.472C-2.464 70.312 -1.184 64.968 0.864 58.44L5.952 42.792C7.36 38.568 8.96 33.32 10.752 27.048C12.608 20.52 13.76 16.616 14.208 15.336C15.936 9.896 17.312 5.96 18.336 3.528C18.912 2.376 20.096 2.12 21.888 2.75999C23.68 3.4 24.672 4.2 24.864 5.16C24.928 5.48 24.768 6.184 24.384 7.272C23.68 9.384 22.816 11.592 21.792 13.896C19.488 21.576 16.288 31.336 12.192 43.176C16.096 41.512 20.672 38.248 25.92 33.384C30.912 28.776 35.04 24.616 38.304 20.904C40.864 17.832 42.944 14.632 44.544 11.304C45.184 9.896 46.368 10.28 48.096 12.456C48.672 13.224 49.056 13.864 49.248 14.376C49.632 15.4 49.632 16.584 49.248 17.928C49.248 18.056 49.088 18.344 48.768 18.792C48.512 19.176 48.384 19.4 48.384 19.464L47.232 21C43.264 25.736 39.168 30.056 34.944 33.96C30.72 37.736 24.768 42.664 17.088 48.744L20.352 53.352L23.232 57.576C25.536 60.648 27.136 62.632 28.032 63.528C32.896 68.52 37.12 71.944 40.704 73.8L43.296 74.568C44.832 75.016 45.952 75.464 46.656 75.912C47.36 76.36 47.584 76.84 47.328 77.352C45.92 80.04 42.88 80.36 38.208 78.312ZM67.818 71.016C65.002 71.336 62.602 70.504 60.618 68.52C58.698 66.472 57.61 63.656 57.354 60.072C51.85 66.088 47.114 68.936 43.146 68.616C40.65 68.36 38.986 67.4 38.154 65.736C37.258 64.008 37.13 61.992 37.77 59.688C38.41 57.32 39.434 54.856 40.842 52.296C42.314 49.736 44.042 47.368 46.026 45.192C47.562 43.464 49.258 42.024 51.114 40.872C52.97 39.72 54.922 39.016 56.97 38.76C59.018 38.44 60.906 38.888 62.634 40.104C63.466 38.888 64.97 38.888 67.146 40.104C69.194 41.128 69.898 42.312 69.258 43.656C67.594 46.664 66.186 49.896 65.034 53.352C63.754 57.064 63.114 60.136 63.114 62.568C63.114 63.784 63.37 64.712 63.882 65.352C64.394 65.928 65.194 66.184 66.282 66.12C66.73 66.12 67.274 66.056 67.914 65.928C68.554 65.736 69.194 65.48 69.834 65.16C70.474 64.84 71.146 64.488 71.85 64.104C72.554 63.72 73.194 63.336 73.77 62.952C74.41 62.504 75.018 62.088 75.594 61.704C76.234 61.32 76.746 60.968 77.13 60.648C77.578 60.328 77.93 60.04 78.186 59.784L78.666 59.496C79.114 59.112 79.338 59.112 79.338 59.496C79.274 60.584 78.09 62.568 75.786 65.448C72.97 68.904 70.314 70.76 67.818 71.016ZM43.53 62.184C43.402 62.696 43.37 63.08 43.434 63.336C43.562 63.528 43.818 63.56 44.202 63.432C46.058 62.856 49.002 60.36 53.034 55.944C57.45 51.016 59.658 47.496 59.658 45.384C58.89 44.424 57.45 44.712 55.338 46.248C53.226 47.72 51.018 49.992 48.714 53.064C46.41 56.072 44.682 59.112 43.53 62.184ZM79.5255 72.072C78.6935 72.072 77.7335 71.336 76.6455 69.864C75.6855 68.52 75.1415 67.176 75.0135 65.832C74.8855 64.232 75.1735 62.408 75.8775 60.36L76.8375 57.768C77.0295 57.192 77.4135 56.2 77.9895 54.792C78.6295 53.32 78.9495 52.552 78.9495 52.488L81.8295 44.424C82.7895 41.416 83.4935 38.568 83.9415 35.88C84.0695 34.984 85.2215 35.24 87.3975 36.648C89.1895 37.8 90.1815 38.824 90.3735 39.72C90.7575 40.936 90.2775 43.4 88.9335 47.112C93.2855 40.968 97.0935 38.28 100.358 39.048C101.446 39.304 102.566 40.104 103.718 41.448C104.806 42.728 105.126 43.752 104.678 44.52C104.614 44.584 104.454 44.648 104.198 44.712C103.942 44.712 103.558 44.744 103.046 44.808C102.534 44.872 101.99 45 101.414 45.192C100.326 45.704 98.7895 46.568 96.8055 47.784C94.6935 49.192 92.9655 50.952 91.6215 53.064C89.6375 55.944 89.8615 58.44 92.2935 60.552C96.0695 63.56 99.5255 64.456 102.661 63.24C104.71 62.472 106.534 61.416 108.134 60.072C108.71 59.624 108.998 59.72 108.998 60.36C108.87 61.192 108.55 62.216 108.038 63.432C106.63 66.568 104.518 68.328 101.702 68.712C98.5655 69.096 95.8135 68.712 93.4455 67.56C90.4375 66.088 87.6855 62.6 85.1895 57.096C84.8055 57.544 84.4535 58.344 84.1335 59.496C84.0055 59.944 83.4295 62.184 82.4055 66.216C82.4055 66.28 82.3095 66.792 82.1175 67.752C81.9255 68.648 81.7655 69.288 81.6375 69.672C81.2535 71.272 80.5495 72.072 79.5255 72.072ZM135.412 71.016C132.596 71.336 130.196 70.504 128.212 68.52C126.292 66.472 125.204 63.656 124.948 60.072C119.444 66.088 114.708 68.936 110.74 68.616C108.244 68.36 106.58 67.4 105.748 65.736C104.852 64.008 104.724 61.992 105.364 59.688C106.004 57.32 107.028 54.856 108.436 52.296C109.908 49.736 111.636 47.368 113.62 45.192C115.156 43.464 116.852 42.024 118.708 40.872C120.564 39.72 122.516 39.016 124.564 38.76C126.612 38.44 128.5 38.888 130.228 40.104C131.06 38.888 132.564 38.888 134.74 40.104C136.788 41.128 137.492 42.312 136.852 43.656C135.188 46.664 133.78 49.896 132.628 53.352C131.348 57.064 130.708 60.136 130.708 62.568C130.708 63.784 130.964 64.712 131.476 65.352C131.988 65.928 132.788 66.184 133.876 66.12C134.324 66.12 134.868 66.056 135.508 65.928C136.148 65.736 136.788 65.48 137.428 65.16C138.068 64.84 138.74 64.488 139.444 64.104C140.148 63.72 140.788 63.336 141.364 62.952C142.004 62.504 142.612 62.088 143.188 61.704C143.828 61.32 144.34 60.968 144.724 60.648C145.172 60.328 145.524 60.04 145.78 59.784L146.26 59.496C146.708 59.112 146.932 59.112 146.932 59.496C146.868 60.584 145.684 62.568 143.38 65.448C140.564 68.904 137.908 70.76 135.412 71.016ZM111.124 62.184C110.996 62.696 110.964 63.08 111.028 63.336C111.156 63.528 111.412 63.56 111.796 63.432C113.652 62.856 116.596 60.36 120.628 55.944C125.044 51.016 127.252 47.496 127.252 45.384C126.484 44.424 125.044 44.712 122.932 46.248C120.82 47.72 118.612 49.992 116.308 53.064C114.004 56.072 112.276 59.112 111.124 62.184ZM169.103 70.344C166.863 70.536 164.911 69.96 163.247 68.616C161.583 67.208 160.751 65.096 160.751 62.28C160.751 60.232 161.295 57.672 162.383 54.6C160.783 57.48 158.319 60.648 154.991 64.104C151.727 67.368 148.815 69 146.255 69C142.159 69 139.759 66.92 139.055 62.76C138.927 61.736 138.863 61.128 138.863 60.936C138.863 58.12 139.855 56.712 141.839 56.712C142.927 56.712 143.887 57.512 144.719 59.112C145.679 60.648 146.543 61.416 147.311 61.416C148.655 61.416 150.191 60.68 151.919 59.208L153.551 57.768L157.583 53.928C156.559 54.12 155.599 54.216 154.703 54.216C150.863 54.216 148.943 52.68 148.943 49.608C148.943 47.048 150.415 44.296 153.359 41.352C156.367 38.344 159.855 36.84 163.823 36.84C168.175 36.84 170.351 38.216 170.351 40.968C170.351 42.504 169.615 44.264 168.143 46.248C169.487 46.056 170.223 45.96 170.351 45.96C171.439 45.96 171.919 46.344 171.791 47.112C171.791 47.24 171.599 47.656 171.215 48.36C170.831 49 170.351 49.8 169.775 50.76C169.263 51.72 168.847 52.552 168.527 53.256C166.927 57.288 166.127 60.232 166.127 62.088C166.127 63.368 166.607 64.264 167.567 64.776C168.015 65.032 168.687 65.16 169.583 65.16C171.119 65.16 172.751 64.744 174.479 63.912C175.567 63.464 176.751 62.856 178.031 62.088C179.311 61.32 180.335 60.68 181.103 60.168C181.871 59.656 182.287 59.4 182.351 59.4C182.799 59.144 183.023 59.144 183.023 59.4C182.959 60.36 181.679 62.12 179.183 64.68C175.663 68.2 172.303 70.088 169.103 70.344ZM157.391 49.992C158.607 49.992 159.855 49.608 161.135 48.84C162.479 48.008 163.439 47.144 164.015 46.248C164.335 44.968 164.495 44.008 164.495 43.368C164.495 42.152 163.919 41.544 162.767 41.544C161.231 41.544 159.567 42.344 157.775 43.944C156.047 45.544 155.183 47.016 155.183 48.36C155.183 49.448 155.919 49.992 157.391 49.992ZM221.726 38.088C220.702 38.088 220.062 37.96 219.806 37.704C218.91 37.192 218.462 36.072 218.462 34.344C218.462 32.424 218.782 31.272 219.422 30.888C219.614 30.696 220.158 30.536 221.054 30.408C222.014 30.216 222.942 30.088 223.838 30.024C224.734 29.96 225.694 29.928 226.718 29.928C227.742 29.864 228.318 29.832 228.446 29.832C234.014 28.936 237.438 28.488 238.718 28.488C242.046 28.488 243.71 29.32 243.71 30.984C243.71 31.624 243.582 32.2 243.326 32.712C243.326 33.352 241.342 34.152 237.374 35.112C233.534 36.072 230.398 36.744 227.966 37.128L226.814 37.32C225.982 37.512 225.054 37.704 224.03 37.896C223.006 38.024 222.238 38.088 221.726 38.088ZM201.758 72.84C200.99 72.84 200.222 72.424 199.454 71.592C198.43 70.632 197.918 69.128 197.918 67.08C197.982 65.928 198.686 63.144 200.03 58.728C201.822 53.48 203.614 48.424 205.406 43.56C205.47 43.432 205.566 43.048 205.694 42.408C205.886 41.768 206.046 41.16 206.174 40.584C206.366 39.944 206.558 39.304 206.75 38.664C207.006 38.024 207.262 37.512 207.518 37.128C207.774 36.68 208.062 36.456 208.382 36.456C209.214 36.072 210.302 36.424 211.646 37.512C212.99 38.6 213.63 39.464 213.566 40.104C213.566 40.744 213.118 42.152 212.222 44.328C211.39 46.504 210.942 47.688 210.878 47.88C209.662 51.016 208.734 53.704 208.094 55.944L214.814 47.784C218.206 43.624 220.67 41.832 222.206 42.408C224.958 43.432 226.302 45.672 226.238 49.128C226.238 49.384 226.174 49.896 226.046 50.664C225.982 51.368 225.95 51.784 225.95 51.912C225.822 52.936 225.438 55.208 224.798 58.728C226.078 57.448 227.166 56.2 228.062 54.984L229.886 52.68L231.422 50.664L233.534 48.168C235.198 46.376 236.638 45.48 237.854 45.48C238.494 45.48 239.07 45.64 239.582 45.96C241.502 47.24 242.462 48.68 242.462 50.28C242.462 50.6 241.886 52.968 240.734 57.384C240.478 58.408 240.35 59.112 240.35 59.496C240.35 60.328 240.638 60.744 241.214 60.744C241.662 60.744 243.422 60.008 246.494 58.536C249.822 56.808 252.798 55.144 255.422 53.544C255.934 53.224 256.35 53.064 256.67 53.064C256.926 53.064 257.054 53.256 257.054 53.64C257.054 54.472 256.286 55.752 254.75 57.48C253.214 59.208 251.23 60.904 248.798 62.568C244.254 65.768 241.15 67.368 239.486 67.368C236.03 67.368 234.462 64.424 234.782 58.536C234.782 58.216 234.814 57.576 234.878 56.616C235.006 55.592 235.07 54.888 235.07 54.504L228.35 61.704C227.966 62.088 227.422 62.792 226.718 63.816C226.014 64.776 225.374 65.608 224.798 66.312C224.222 66.952 223.71 67.304 223.262 67.368C222.494 67.496 221.79 67.56 221.15 67.56C219.166 67.56 218.142 66.984 218.078 65.832C218.014 65.384 218.014 64.712 218.078 63.816C218.142 60.552 218.654 56.264 219.614 50.952C217.566 53.32 215.39 56.072 213.086 59.208C208.222 65.928 205.598 69.864 205.214 71.016C203.934 72.232 202.782 72.84 201.758 72.84ZM284.171 69.96C280.651 69.96 278.251 68.936 276.971 66.888C275.947 64.904 275.435 62.824 275.435 60.648C275.435 58.792 275.755 56.36 276.395 53.352C275.499 53.672 273.899 54.472 271.595 55.752C270.635 59.784 269.547 62.952 268.331 65.256C266.475 67.944 264.267 69.288 261.707 69.288L259.211 68.808C257.291 68.104 255.755 66.824 254.603 64.968C253.515 63.048 252.971 60.936 252.971 58.632C252.971 56.648 253.387 54.184 254.219 51.24C255.051 48.232 255.915 45.8 256.811 43.944C256.875 43.752 257.067 43.272 257.387 42.504C257.771 41.672 258.091 41.032 258.347 40.584C258.603 40.072 258.923 39.496 259.307 38.856C259.691 38.152 260.075 37.64 260.459 37.32C260.843 37 261.195 36.84 261.515 36.84C262.219 36.84 263.083 37.352 264.107 38.376C265.195 39.336 265.835 40.296 266.027 41.256C266.091 41.448 265.963 41.992 265.643 42.888C265.387 43.592 264.843 44.712 264.011 46.248L262.571 49.224C264.299 49.352 266.123 49.64 268.043 50.088C268.811 49.64 270.827 48.52 274.091 46.728C276.075 45.704 277.803 44.712 279.275 43.752C280.555 41.896 281.643 40.168 282.539 38.568C284.075 36.456 285.291 35.4 286.187 35.4C287.019 35.4 287.947 35.88 288.971 36.84C289.995 37.736 290.507 38.664 290.507 39.624C290.507 40.072 289.611 41.864 287.819 45C287.499 45.576 287.179 46.152 286.859 46.728C286.539 47.304 286.283 47.784 286.091 48.168C285.899 48.488 285.707 48.808 285.515 49.128C285.387 49.384 285.259 49.608 285.131 49.8C285.067 49.928 285.035 50.024 285.035 50.088C283.115 54.504 282.155 58.088 282.155 60.84C282.155 62.568 282.603 63.688 283.499 64.2C283.755 64.456 284.203 64.584 284.843 64.584C286.059 64.584 287.595 63.976 289.451 62.76C291.051 61.8 292.555 60.744 293.963 59.592C294.347 59.336 294.539 59.528 294.539 60.168C294.539 61.448 294.027 62.792 293.003 64.2C291.979 65.672 290.603 67.016 288.875 68.232C287.211 69.384 285.643 69.96 284.171 69.96ZM260.459 62.952C260.971 63.016 261.867 62.184 263.147 60.456C264.427 58.728 265.099 57.16 265.163 55.752C265.163 54.984 264.011 54.408 261.707 54.024C261.131 54.152 260.587 54.92 260.075 56.328C259.627 57.736 259.403 59.112 259.403 60.456C259.403 61.992 259.755 62.824 260.459 62.952ZM323.904 70.44C320.384 70.44 317.696 69.512 315.84 67.656C313.664 65.48 312.576 62.728 312.576 59.4C312.576 56.328 313.408 53.192 315.072 49.992C316.736 46.792 318.784 44.072 321.216 41.832C323.776 39.528 326.016 38.376 327.936 38.376C329.472 38.376 330.976 39.016 332.448 40.296C334.112 41.832 334.944 43.432 334.944 45.096C334.944 46.248 334.304 46.824 333.024 46.824L331.68 46.632C331.232 46.504 330.72 46.312 330.144 46.056C329.568 45.736 329.216 45.576 329.088 45.576C328.768 45.576 328.16 45.832 327.264 46.344C326.432 46.92 324.896 48.712 322.656 51.72C319.712 55.688 318.24 59.016 318.24 61.704C318.24 62.792 318.528 63.72 319.104 64.488C319.744 65.256 320.704 65.64 321.984 65.64C326.08 65.64 332.032 62.952 339.84 57.576C339.968 57.512 340.064 57.544 340.128 57.672C340.192 57.8 340.224 57.992 340.224 58.248C340.224 59.784 339.36 61.576 337.632 63.624C336.48 64.84 334.464 66.44 331.584 68.424C329.536 69.768 326.976 70.44 323.904 70.44ZM341.088 72.072C340.256 72.072 339.296 71.336 338.208 69.864C337.248 68.52 336.704 67.176 336.576 65.832C336.448 64.232 336.736 62.408 337.44 60.36L338.4 57.768C338.592 57.192 338.976 56.2 339.552 54.792C340.192 53.32 340.512 52.552 340.512 52.488L343.392 44.424C344.352 41.416 345.056 38.568 345.504 35.88C345.632 34.984 346.784 35.24 348.96 36.648C350.752 37.8 351.744 38.824 351.936 39.72C352.32 40.936 351.84 43.4 350.496 47.112C354.848 40.968 358.656 38.28 361.92 39.048C363.008 39.304 364.128 40.104 365.28 41.448C366.368 42.728 366.688 43.752 366.24 44.52C366.176 44.584 366.016 44.648 365.76 44.712C365.504 44.712 365.12 44.744 364.608 44.808C364.096 44.872 363.552 45 362.976 45.192C361.888 45.704 360.352 46.568 358.368 47.784C356.256 49.192 354.528 50.952 353.184 53.064C351.2 55.944 351.424 58.44 353.856 60.552C357.632 63.56 361.088 64.456 364.224 63.24C366.272 62.472 368.096 61.416 369.696 60.072C370.272 59.624 370.56 59.72 370.56 60.36C370.432 61.192 370.112 62.216 369.6 63.432C368.192 66.568 366.08 68.328 363.264 68.712C360.128 69.096 357.376 68.712 355.008 67.56C352 66.088 349.248 62.6 346.752 57.096C346.368 57.544 346.016 58.344 345.696 59.496C345.568 59.944 344.992 62.184 343.968 66.216C343.968 66.28 343.872 66.792 343.68 67.752C343.488 68.648 343.328 69.288 343.2 69.672C342.816 71.272 342.112 72.072 341.088 72.072ZM396.974 71.016C394.158 71.336 391.758 70.504 389.774 68.52C387.854 66.472 386.766 63.656 386.51 60.072C381.006 66.088 376.27 68.936 372.302 68.616C369.806 68.36 368.142 67.4 367.31 65.736C366.414 64.008 366.286 61.992 366.926 59.688C367.566 57.32 368.59 54.856 369.998 52.296C371.47 49.736 373.198 47.368 375.182 45.192C376.718 43.464 378.414 42.024 380.27 40.872C382.126 39.72 384.078 39.016 386.126 38.76C388.174 38.44 390.062 38.888 391.79 40.104C392.622 38.888 394.126 38.888 396.302 40.104C398.35 41.128 399.054 42.312 398.414 43.656C396.75 46.664 395.342 49.896 394.19 53.352C392.91 57.064 392.27 60.136 392.27 62.568C392.27 63.784 392.526 64.712 393.038 65.352C393.55 65.928 394.35 66.184 395.438 66.12C395.886 66.12 396.43 66.056 397.07 65.928C397.71 65.736 398.35 65.48 398.99 65.16C399.63 64.84 400.302 64.488 401.006 64.104C401.71 63.72 402.35 63.336 402.926 62.952C403.566 62.504 404.174 62.088 404.75 61.704C405.39 61.32 405.902 60.968 406.286 60.648C406.734 60.328 407.086 60.04 407.342 59.784L407.822 59.496C408.27 59.112 408.494 59.112 408.494 59.496C408.43 60.584 407.246 62.568 404.942 65.448C402.126 68.904 399.47 70.76 396.974 71.016ZM372.686 62.184C372.558 62.696 372.526 63.08 372.59 63.336C372.718 63.528 372.974 63.56 373.358 63.432C375.214 62.856 378.158 60.36 382.19 55.944C386.606 51.016 388.814 47.496 388.814 45.384C388.046 44.424 386.606 44.712 384.494 46.248C382.382 47.72 380.174 49.992 377.87 53.064C375.566 56.072 373.838 59.112 372.686 62.184ZM405.706 96.552C403.786 95.592 402.474 94.472 401.77 93.192C401.002 91.976 400.682 90.76 400.81 89.544C400.938 88.392 401.354 87.08 402.058 85.608C402.506 84.52 403.402 83.208 404.746 81.672C407.498 78.792 409.642 76.712 411.178 75.432C413.098 73.704 416.49 71.4 421.354 68.52C422.506 67.816 425.258 66.248 429.61 63.816C428.97 62.024 427.69 61.032 425.77 60.84C422.762 60.456 419.626 61.288 416.362 63.336L413.77 65.448C412.234 66.728 411.146 67.4 410.506 67.464C409.418 67.656 408.298 67.112 407.146 65.832C406.058 64.552 405.674 63.336 405.994 62.184C406.122 61.608 406.41 61.128 406.858 60.744C407.37 60.36 408.042 60.008 408.874 59.688C409.706 59.368 410.218 59.144 410.41 59.016C411.626 58.248 413.738 56.488 416.746 53.736C418.218 52.392 420.042 50.312 422.218 47.496C424.33 44.808 424.97 43.144 424.138 42.504C423.69 42.12 422.666 42.344 421.066 43.176C419.658 43.88 418.474 44.552 417.514 45.192C417.066 45.448 416.266 46.12 415.114 47.208C414.026 48.296 413.29 48.968 412.906 49.224C410.986 50.568 409.354 50.408 408.01 48.744C407.242 47.912 406.922 47.08 407.05 46.248C407.242 45.416 407.53 44.776 407.914 44.328C408.298 43.88 408.938 43.304 409.834 42.6C415.274 38.312 419.978 36.36 423.946 36.744C426.442 36.936 428.394 38.184 429.802 40.488C431.594 43.304 429.514 48.232 423.562 55.272C429.386 55.912 433.002 58.152 434.41 61.992C434.922 61.736 435.786 61.48 437.002 61.224C438.282 60.904 439.626 60.68 441.034 60.552C442.506 60.424 443.722 60.584 444.682 61.032C445.706 61.48 446.154 62.216 446.026 63.24C446.026 63.432 445.802 63.624 445.354 63.816C444.906 63.944 444.17 64.136 443.146 64.392C442.122 64.648 441.226 64.936 440.458 65.256C437.258 66.6 435.402 67.432 434.89 67.752C434.314 71.272 433.898 73.384 433.642 74.088C431.85 79.528 428.906 84.136 424.81 87.912C424.746 87.976 424.394 88.264 423.754 88.776C423.114 89.288 422.666 89.672 422.41 89.928C421.77 90.504 421.162 91.112 420.586 91.752C420.01 92.328 419.434 92.36 418.858 91.848C418.794 91.848 418.634 92.008 418.378 92.328C418.122 92.648 417.866 93 417.61 93.384C417.354 93.768 417.162 94.024 417.034 94.152C415.626 95.304 413.834 96.104 411.658 96.552C409.482 97.064 407.498 97.064 405.706 96.552ZM409.738 92.136C413.578 90.856 417.29 88.232 420.874 84.264C422.218 82.536 423.05 81.448 423.37 81C424.458 79.592 425.61 77.736 426.826 75.432C428.106 73.128 428.81 71.304 428.938 69.96C423.434 73.544 419.274 76.392 416.458 78.504C412.362 81.896 409.514 84.776 407.914 87.144C406.442 88.936 405.834 90.344 406.09 91.368C406.346 92.456 407.562 92.712 409.738 92.136ZM451.654 69C450.374 69 449.126 68.68 447.91 68.04C444.838 67.016 443.302 64.648 443.302 60.936C443.302 57.096 444.518 53 446.95 48.648C446.95 48.584 447.334 47.848 448.102 46.44C448.87 45.032 449.478 43.944 449.926 43.176C452.614 38.632 454.694 36.296 456.166 36.168C456.87 36.104 457.702 36.456 458.662 37.224C459.686 37.928 460.422 38.632 460.87 39.336C461.254 40.168 461.446 40.776 461.446 41.16V41.352C461.446 41.608 461.83 42.056 462.598 42.696C462.982 43.016 464.454 44.104 467.014 45.96C468.358 46.92 469.03 48.36 469.03 50.28C469.03 50.984 468.998 51.432 468.934 51.624C468.806 53.352 468.038 55.176 466.63 57.096C466.118 57.736 465.766 58.184 465.574 58.44L462.982 61.416C458.502 66.472 454.726 69 451.654 69ZM450.022 63.432C451.366 63.432 453.894 61.416 457.606 57.384C461.382 53.288 463.27 50.504 463.27 49.032C463.27 48.584 463.078 48.168 462.694 47.784L461.542 47.496C459.366 46.92 457.83 46.888 456.934 47.4C454.694 48.68 452.518 52.2 450.406 57.96C449.638 59.944 449.254 61.384 449.254 62.28C449.254 63.048 449.51 63.432 450.022 63.432ZM488.131 70.92C486.019 70.92 484.163 70.024 482.563 68.232C481.027 66.44 480.259 64.36 480.259 61.992C480.259 59.688 481.283 56.552 483.331 52.584C479.619 52.584 477.059 51.016 475.651 47.88C475.075 46.6 474.787 45.224 474.787 43.752C474.787 41.32 475.491 38.984 476.899 36.744C477.347 35.912 477.859 35.496 478.435 35.496C479.075 35.496 479.779 35.624 480.547 35.88C481.955 36.264 483.011 37 483.715 38.088C483.971 38.6 484.099 39.016 484.099 39.336C484.099 39.592 484.067 39.784 484.003 39.912C483.043 42.984 482.563 44.808 482.563 45.384C482.563 46.152 482.819 46.536 483.331 46.536C484.611 46.536 486.499 44.232 488.995 39.624C489.315 39.048 489.923 37.736 490.819 35.688C491.267 34.856 492.035 34.568 493.123 34.824C495.043 35.272 496.387 35.784 497.155 36.36C497.987 36.936 498.275 37.704 498.019 38.664C497.891 39.56 497.507 40.648 496.867 41.928C496.227 43.144 495.491 44.424 494.659 45.768C493.827 47.048 493.379 47.752 493.315 47.88C489.155 55.816 487.075 61.032 487.075 63.528C487.075 64.872 487.619 65.544 488.707 65.544C489.859 65.544 492.771 64.36 497.443 61.992C497.763 61.864 498.627 61.384 500.035 60.552C501.507 59.72 502.531 59.176 503.107 58.92C503.427 58.792 503.587 58.824 503.587 59.016C503.587 59.08 503.587 59.176 503.587 59.304C503.331 60.712 502.147 62.6 500.035 64.968L498.019 66.792C494.243 69.544 490.947 70.92 488.131 70.92ZM505.226 69.768C503.114 68.36 501.898 66.888 501.578 65.352C501.45 64.328 501.386 63.624 501.386 63.24C501.386 62.024 501.514 60.776 501.77 59.496C500.81 58.664 500.33 57.576 500.33 56.232C500.33 55.336 500.458 54.632 500.714 54.12C500.778 53.736 501.514 53.8 502.922 54.312C503.434 53.224 504.202 51.368 505.226 48.744L506.666 45C506.858 44.552 507.05 43.976 507.242 43.272C507.498 42.504 507.69 41.8 507.818 41.16C508.01 40.52 508.202 39.912 508.394 39.336C508.586 38.696 508.746 38.248 508.874 37.992C509.066 37.672 509.226 37.544 509.354 37.608C511.082 37.608 512.522 37.864 513.674 38.376C514.826 38.888 515.402 39.496 515.402 40.2C515.402 40.52 515.05 41.576 514.346 43.368C514.154 43.752 513.802 44.584 513.29 45.864C512.842 47.144 512.458 48.168 512.138 48.936C511.882 49.512 511.338 50.92 510.506 53.16C511.594 53.16 513.418 52.616 515.978 51.528C518.73 50.312 520.65 49.32 521.738 48.552C522.058 48.232 522.73 46.984 523.754 44.808C526.442 39.496 528.874 36.84 531.05 36.84C531.818 36.84 532.618 37.224 533.45 37.992C534.282 38.824 534.698 39.784 534.698 40.872C534.698 43.432 532.074 47.208 526.826 52.2L525.194 56.232C524.49 57.896 524.138 59.432 524.138 60.84C524.138 62.888 525.13 63.912 527.114 63.912C527.818 63.912 528.266 63.88 528.458 63.816C530.122 63.56 532.874 62.152 536.714 59.592C538.378 58.44 540.394 56.584 542.762 54.024C542.89 53.896 543.018 53.832 543.146 53.832C543.274 53.832 543.37 53.928 543.434 54.12C543.562 54.248 543.626 54.44 543.626 54.696C543.626 56.552 541.482 59.72 537.194 64.2C536.17 65.288 535.018 66.216 533.738 66.984C531.754 68.2 529.674 68.808 527.498 68.808C526.73 68.808 525.706 68.648 524.426 68.328C521.098 67.304 519.434 64.776 519.434 60.744C519.434 60.616 519.498 59.336 519.626 56.904L515.978 59.112C513.866 60.2 511.146 60.712 507.818 60.648C507.242 62.12 507.114 64.552 507.434 67.944C507.498 69.032 507.274 69.736 506.762 70.056C506.25 70.44 505.738 70.344 505.226 69.768ZM567.974 71.016C565.158 71.336 562.758 70.504 560.774 68.52C558.854 66.472 557.766 63.656 557.51 60.072C552.006 66.088 547.27 68.936 543.302 68.616C540.806 68.36 539.142 67.4 538.31 65.736C537.414 64.008 537.286 61.992 537.926 59.688C538.566 57.32 539.59 54.856 540.998 52.296C542.47 49.736 544.198 47.368 546.182 45.192C547.718 43.464 549.414 42.024 551.27 40.872C553.126 39.72 555.078 39.016 557.126 38.76C559.174 38.44 561.062 38.888 562.79 40.104C563.622 38.888 565.126 38.888 567.302 40.104C569.35 41.128 570.054 42.312 569.414 43.656C567.75 46.664 566.342 49.896 565.19 53.352C563.91 57.064 563.27 60.136 563.27 62.568C563.27 63.784 563.526 64.712 564.038 65.352C564.55 65.928 565.35 66.184 566.438 66.12C566.886 66.12 567.43 66.056 568.07 65.928C568.71 65.736 569.35 65.48 569.99 65.16C570.63 64.84 571.302 64.488 572.006 64.104C572.71 63.72 573.35 63.336 573.926 62.952C574.566 62.504 575.174 62.088 575.75 61.704C576.39 61.32 576.902 60.968 577.286 60.648C577.734 60.328 578.086 60.04 578.342 59.784L578.822 59.496C579.27 59.112 579.494 59.112 579.494 59.496C579.43 60.584 578.246 62.568 575.942 65.448C573.126 68.904 570.47 70.76 567.974 71.016ZM543.686 62.184C543.558 62.696 543.526 63.08 543.59 63.336C543.718 63.528 543.974 63.56 544.358 63.432C546.214 62.856 549.158 60.36 553.19 55.944C557.606 51.016 559.814 47.496 559.814 45.384C559.046 44.424 557.606 44.712 555.494 46.248C553.382 47.72 551.174 49.992 548.87 53.064C546.566 56.072 544.838 59.112 543.686 62.184ZM601.666 70.344C599.426 70.536 597.474 69.96 595.81 68.616C594.146 67.208 593.314 65.096 593.314 62.28C593.314 60.232 593.858 57.672 594.946 54.6C593.346 57.48 590.882 60.648 587.554 64.104C584.29 67.368 581.378 69 578.818 69C574.722 69 572.322 66.92 571.618 62.76C571.49 61.736 571.426 61.128 571.426 60.936C571.426 58.12 572.418 56.712 574.402 56.712C575.49 56.712 576.45 57.512 577.282 59.112C578.242 60.648 579.106 61.416 579.874 61.416C581.218 61.416 582.754 60.68 584.482 59.208L586.114 57.768L590.146 53.928C589.122 54.12 588.162 54.216 587.266 54.216C583.426 54.216 581.506 52.68 581.506 49.608C581.506 47.048 582.978 44.296 585.922 41.352C588.93 38.344 592.418 36.84 596.386 36.84C600.738 36.84 602.914 38.216 602.914 40.968C602.914 42.504 602.178 44.264 600.706 46.248C602.05 46.056 602.786 45.96 602.914 45.96C604.002 45.96 604.482 46.344 604.354 47.112C604.354 47.24 604.162 47.656 603.778 48.36C603.394 49 602.914 49.8 602.338 50.76C601.826 51.72 601.41 52.552 601.09 53.256C599.49 57.288 598.69 60.232 598.69 62.088C598.69 63.368 599.17 64.264 600.13 64.776C600.578 65.032 601.25 65.16 602.146 65.16C603.682 65.16 605.314 64.744 607.042 63.912C608.13 63.464 609.314 62.856 610.594 62.088C611.874 61.32 612.898 60.68 613.666 60.168C614.434 59.656 614.85 59.4 614.914 59.4C615.362 59.144 615.586 59.144 615.586 59.4C615.522 60.36 614.242 62.12 611.746 64.68C608.226 68.2 604.866 70.088 601.666 70.344ZM589.954 49.992C591.17 49.992 592.418 49.608 593.698 48.84C595.042 48.008 596.002 47.144 596.578 46.248C596.898 44.968 597.058 44.008 597.058 43.368C597.058 42.152 596.482 41.544 595.33 41.544C593.794 41.544 592.13 42.344 590.338 43.944C588.61 45.544 587.746 47.016 587.746 48.36C587.746 49.448 588.482 49.992 589.954 49.992ZM638.736 72.168C637.2 72.168 635.984 71.912 635.088 71.4C632.08 69.544 631.312 67.048 632.784 63.912C634.128 61.16 635.632 58.728 637.296 56.616C638.768 54.824 639.952 53.448 640.848 52.488C644.24 48.648 646.224 45.896 646.8 44.232C647.184 43.08 647.216 42.344 646.896 42.024C646.64 41.704 646.032 41.8 645.072 42.312C643.344 43.208 641.168 44.936 638.544 47.496C638.288 47.752 637.744 48.328 636.912 49.224C636.144 50.12 635.664 50.664 635.472 50.856C633.808 52.52 632.432 52.008 631.344 49.32C630.384 46.888 631.184 44.392 633.744 41.832C636.432 39.144 639.088 37.384 641.712 36.552C645.104 35.4 647.952 35.816 650.256 37.8C652.56 39.784 653.328 42.472 652.56 45.864C652.048 47.912 650.032 51.048 646.512 55.272C643.056 59.496 641.04 62.184 640.464 63.336C639.696 64.872 639.504 65.8 639.888 66.12C640.272 66.376 641.36 66.28 643.152 65.832C645.904 65.192 650.864 62.824 658.032 58.728C658.416 58.408 658.608 58.536 658.608 59.112C658.48 60.712 657.328 62.696 655.152 65.064C653.488 66.856 651.6 68.296 649.488 69.384C645.904 71.24 642.32 72.168 638.736 72.168ZM667.898 70.44C664.762 70.44 661.914 69.384 659.354 67.272C657.946 66.12 657.018 64.936 656.57 63.72C656.122 62.504 655.898 60.936 655.898 59.016C655.898 54.088 657.978 49.448 662.138 45.096C666.362 40.744 670.33 38.568 674.042 38.568C675.13 38.568 676.154 38.856 677.114 39.432C678.458 40.2 679.258 41.384 679.514 42.984C679.578 43.24 679.609 43.784 679.609 44.616C679.609 46.088 679.354 47.592 678.842 49.128C678.074 51.432 676.826 53.448 675.098 55.176C673.434 56.904 671.482 58.024 669.242 58.536C669.05 58.6 668.634 58.632 667.994 58.632C665.882 58.632 663.994 58.088 662.33 57C661.242 60.392 661.434 62.856 662.906 64.392C663.674 65.224 665.018 65.64 666.938 65.64C673.21 65.64 679.162 62.824 684.794 57.192C684.858 57.128 684.954 57.224 685.082 57.48C685.274 59.016 684.57 60.776 682.97 62.76L682.586 63.24C680.858 65.224 678.586 66.92 675.77 68.328C672.954 69.736 670.33 70.44 667.898 70.44ZM664.538 52.968C665.818 53.672 667.386 53.128 669.242 51.336C670.138 50.696 671.386 49.416 672.986 47.496C674.714 45.512 675.418 44.232 675.098 43.656C675.034 43.144 674.266 43.368 672.794 44.328C671.386 45.224 669.818 46.536 668.09 48.264C666.426 49.992 665.242 51.56 664.538 52.968ZM680.431 106.152C680.943 106.856 680.623 107.272 679.471 107.4C677.551 107.656 675.823 106.92 674.287 105.192C673.519 104.168 673.007 103.144 672.751 102.12C672.111 99.752 672.527 95.656 673.999 89.832C673.999 89.768 674.031 89.608 674.095 89.352C674.095 89.16 674.127 89.032 674.191 88.968C676.367 80.264 679.663 70.024 684.079 58.248C686.191 52.424 688.463 46.632 690.895 40.872C692.943 36.008 694.447 33.352 695.407 32.904C696.111 32.648 697.455 32.744 699.439 33.192C700.975 33.576 701.199 34.92 700.111 37.224C698.831 39.592 696.239 45.192 692.335 54.024C694.255 51.4 695.887 49.416 697.231 48.072C701.135 43.784 704.367 41.192 706.927 40.296C707.503 40.04 708.271 39.912 709.231 39.912C711.343 39.912 713.135 40.936 714.607 42.984C716.015 44.904 716.559 47.112 716.239 49.608C716.175 51.208 715.375 53.576 713.839 56.712C712.367 59.656 710.351 62.44 707.791 65.064C705.231 67.624 702.607 68.904 699.919 68.904C697.615 68.904 695.951 67.912 694.927 65.928C694.287 64.712 694.319 64.008 695.023 63.816C695.151 63.688 695.311 63.688 695.503 63.816C697.295 64.2 699.151 63.848 701.071 62.76C702.991 61.608 704.527 60.104 705.679 58.248C708.879 53.064 710.447 49.032 710.383 46.152C710.383 45.192 710.159 44.712 709.711 44.712C708.495 44.712 706.415 45.992 703.471 48.552C699.119 52.392 695.215 56.968 691.759 62.28C688.367 67.592 685.839 72.936 684.175 78.312C681.487 87.016 679.919 92.84 679.471 95.784C678.639 100.2 678.959 103.656 680.431 106.152ZM729.81 69C728.53 69 727.282 68.68 726.066 68.04C722.994 67.016 721.458 64.648 721.458 60.936C721.458 57.096 722.674 53 725.106 48.648C725.106 48.584 725.49 47.848 726.258 46.44C727.026 45.032 727.634 43.944 728.082 43.176C730.77 38.632 732.85 36.296 734.322 36.168C735.026 36.104 735.858 36.456 736.818 37.224C737.842 37.928 738.578 38.632 739.026 39.336C739.41 40.168 739.602 40.776 739.602 41.16V41.352C739.602 41.608 739.986 42.056 740.754 42.696C741.138 43.016 742.61 44.104 745.17 45.96C746.514 46.92 747.186 48.36 747.186 50.28C747.186 50.984 747.154 51.432 747.09 51.624C746.962 53.352 746.194 55.176 744.786 57.096C744.274 57.736 743.922 58.184 743.73 58.44L741.138 61.416C736.658 66.472 732.882 69 729.81 69ZM728.178 63.432C729.522 63.432 732.05 61.416 735.762 57.384C739.538 53.288 741.426 50.504 741.426 49.032C741.426 48.584 741.234 48.168 740.85 47.784L739.698 47.496C737.522 46.92 735.986 46.888 735.09 47.4C732.85 48.68 730.674 52.2 728.562 57.96C727.794 59.944 727.41 61.384 727.41 62.28C727.41 63.048 727.666 63.432 728.178 63.432ZM753.807 71.88C748.239 70.92 746.863 65.288 749.679 54.984C750.831 50.824 752.047 46.952 753.327 43.368C754.991 38.824 756.271 36.36 757.167 35.976C758.127 35.656 759.311 36.104 760.719 37.32C762.255 38.6 763.023 39.912 763.023 41.256C763.023 41.896 762.799 42.632 762.351 43.464C760.047 47.752 757.967 52.168 756.111 56.712C754.447 61.96 753.903 64.712 754.479 64.968H754.863C754.927 64.968 755.503 64.392 756.591 63.24C758.639 60.744 761.647 57.352 765.615 53.064L767.919 50.088C769.007 48.68 770.095 47.368 771.183 46.152C771.311 46.024 771.759 45.384 772.527 44.232C773.295 43.016 774.063 41.992 774.831 41.16C775.599 40.264 776.175 39.848 776.559 39.912C777.263 39.848 778.031 40.104 778.863 40.68C779.759 41.256 780.399 41.896 780.783 42.6C781.103 43.112 781.295 43.56 781.359 43.944C781.423 44.264 781.423 44.552 781.359 44.808C781.295 45 781.167 45.352 780.975 45.864C780.847 46.376 780.719 46.856 780.591 47.304C779.183 51.208 778.127 54.824 777.423 58.152C776.527 62.696 776.975 64.968 778.767 64.968C781.199 64.968 784.751 63.624 789.423 60.936L792.207 59.4C792.655 59.208 792.879 59.24 792.879 59.496C792.815 60.52 791.503 62.344 788.943 64.968C785.871 68.168 783.087 69.896 780.591 70.152C777.519 70.408 775.055 69.224 773.199 66.6C771.343 63.976 770.959 60.008 772.047 54.696C770.703 56.232 768.719 58.536 766.095 61.608C760.143 68.712 756.047 72.136 753.807 71.88ZM792.289 69.768C790.177 68.36 788.961 66.888 788.641 65.352C788.513 64.328 788.449 63.624 788.449 63.24C788.449 62.024 788.577 60.776 788.833 59.496C787.873 58.664 787.393 57.576 787.393 56.232C787.393 55.336 787.521 54.632 787.777 54.12C787.841 53.736 788.577 53.8 789.985 54.312C790.497 53.224 791.265 51.368 792.289 48.744L793.729 45C793.921 44.552 794.113 43.976 794.305 43.272C794.561 42.504 794.753 41.8 794.881 41.16C795.073 40.52 795.265 39.912 795.457 39.336C795.649 38.696 795.809 38.248 795.937 37.992C796.129 37.672 796.289 37.544 796.417 37.608C798.145 37.608 799.585 37.864 800.737 38.376C801.889 38.888 802.465 39.496 802.465 40.2C802.465 40.52 802.113 41.576 801.409 43.368C801.217 43.752 800.865 44.584 800.353 45.864C799.905 47.144 799.521 48.168 799.201 48.936C798.945 49.512 798.401 50.92 797.569 53.16C798.657 53.16 800.481 52.616 803.041 51.528C805.793 50.312 807.713 49.32 808.801 48.552C809.121 48.232 809.793 46.984 810.817 44.808C813.505 39.496 815.937 36.84 818.113 36.84C818.881 36.84 819.681 37.224 820.513 37.992C821.345 38.824 821.761 39.784 821.761 40.872C821.761 43.432 819.137 47.208 813.889 52.2L812.257 56.232C811.553 57.896 811.201 59.432 811.201 60.84C811.201 62.888 812.193 63.912 814.177 63.912C814.881 63.912 815.329 63.88 815.521 63.816C817.185 63.56 819.937 62.152 823.777 59.592C825.441 58.44 827.457 56.584 829.825 54.024C829.953 53.896 830.081 53.832 830.209 53.832C830.337 53.832 830.433 53.928 830.497 54.12C830.625 54.248 830.689 54.44 830.689 54.696C830.689 56.552 828.545 59.72 824.257 64.2C823.233 65.288 822.081 66.216 820.801 66.984C818.817 68.2 816.737 68.808 814.561 68.808C813.793 68.808 812.769 68.648 811.489 68.328C808.161 67.304 806.497 64.776 806.497 60.744C806.497 60.616 806.561 59.336 806.689 56.904L803.041 59.112C800.929 60.2 798.209 60.712 794.881 60.648C794.305 62.12 794.177 64.552 794.497 67.944C794.561 69.032 794.337 69.736 793.825 70.056C793.313 70.44 792.801 70.344 792.289 69.768ZM852.541 70.344C850.301 70.536 848.349 69.96 846.685 68.616C845.021 67.208 844.189 65.096 844.189 62.28C844.189 60.232 844.733 57.672 845.821 54.6C844.221 57.48 841.757 60.648 838.429 64.104C835.165 67.368 832.253 69 829.693 69C825.597 69 823.197 66.92 822.493 62.76C822.365 61.736 822.301 61.128 822.301 60.936C822.301 58.12 823.293 56.712 825.277 56.712C826.365 56.712 827.325 57.512 828.157 59.112C829.117 60.648 829.981 61.416 830.749 61.416C832.093 61.416 833.629 60.68 835.357 59.208L836.989 57.768L841.021 53.928C839.997 54.12 839.037 54.216 838.141 54.216C834.301 54.216 832.381 52.68 832.381 49.608C832.381 47.048 833.853 44.296 836.797 41.352C839.805 38.344 843.293 36.84 847.261 36.84C851.613 36.84 853.789 38.216 853.789 40.968C853.789 42.504 853.053 44.264 851.581 46.248C852.925 46.056 853.661 45.96 853.789 45.96C854.877 45.96 855.357 46.344 855.229 47.112C855.229 47.24 855.037 47.656 854.653 48.36C854.269 49 853.789 49.8 853.213 50.76C852.701 51.72 852.285 52.552 851.965 53.256C850.365 57.288 849.565 60.232 849.565 62.088C849.565 63.368 850.045 64.264 851.005 64.776C851.453 65.032 852.125 65.16 853.021 65.16C854.557 65.16 856.189 64.744 857.917 63.912C859.005 63.464 860.189 62.856 861.469 62.088C862.749 61.32 863.773 60.68 864.541 60.168C865.309 59.656 865.725 59.4 865.789 59.4C866.237 59.144 866.461 59.144 866.461 59.4C866.397 60.36 865.117 62.12 862.621 64.68C859.101 68.2 855.741 70.088 852.541 70.344ZM840.829 49.992C842.045 49.992 843.293 49.608 844.573 48.84C845.917 48.008 846.877 47.144 847.453 46.248C847.773 44.968 847.933 44.008 847.933 43.368C847.933 42.152 847.357 41.544 846.205 41.544C844.669 41.544 843.005 42.344 841.213 43.944C839.485 45.544 838.621 47.016 838.621 48.36C838.621 49.448 839.357 49.992 840.829 49.992ZM875.813 53.256C874.533 51.592 873.893 50.024 873.893 48.552C873.893 46.824 874.597 45.128 876.005 43.464C877.477 41.736 879.653 39.656 882.533 37.224C885.413 34.92 887.525 33.032 888.869 31.56C893.349 26.824 896.357 23.208 897.893 20.712C899.557 18.088 900.389 15.208 900.389 12.072C900.389 7.976 899.109 5.928 896.549 5.928C892.709 5.928 889.445 8.104 886.757 12.456C884.133 16.808 883.493 21.096 884.837 25.32C884.965 25.704 884.805 26.088 884.357 26.472C883.973 26.856 883.461 27.112 882.821 27.24C882.245 27.304 881.637 27.208 880.997 26.952C879.013 25.672 878.021 23.592 878.021 20.712C878.021 15.144 880.005 10.376 883.973 6.408C887.941 2.376 891.845 0.359997 895.685 0.359997C898.885 0.359997 901.381 1.544 903.173 3.912C905.029 6.216 905.957 9.224 905.957 12.936C905.957 16.392 904.773 19.88 902.405 23.4C900.101 26.92 896.517 31.08 891.653 35.88C890.501 36.968 888.933 38.376 886.949 40.104C885.029 41.832 883.717 43.016 883.013 43.656C879.237 46.792 877.989 49.288 879.269 51.144C879.653 51.656 879.589 52.168 879.077 52.68C878.629 53.192 878.053 53.48 877.349 53.544C876.709 53.608 876.197 53.512 875.813 53.256ZM872.069 69.672C871.109 69.672 870.341 69.288 869.765 68.52C869.189 67.688 868.901 66.664 868.901 65.448C868.901 64.04 869.509 62.696 870.725 61.416C871.941 60.072 873.349 59.4 874.949 59.4C877.189 59.4 878.309 60.616 878.309 63.048C878.309 64.52 877.573 65.992 876.101 67.464C874.629 68.936 873.285 69.672 872.069 69.672Z" fill="black"/>
</svg>
