<svg width="852" height="500" viewBox="0 0 852 500" fill="none" xmlns="http://www.w3.org/2000/svg">
<path d="M45.6144 456.18C45.6144 456.18 385.426 326.549 826.888 321.821C355.534 359.423 45.6144 456.18 45.6144 456.18Z" fill="url(#paint0_linear_242_4125)"/>
<path d="M77.5147 113.852C78.0671 115.596 77.6414 119.235 76.2374 124.768C75.3942 129.692 73.5793 137.364 70.7928 147.786C65.3527 168.825 62.3939 186.808 61.9165 201.734C62.0961 206.309 61.2403 208.721 59.3489 208.972C57.2473 209.251 55.3879 208.536 53.7708 206.826C52.2727 205.207 51.2967 203.091 50.8428 200.478C49.9071 195.042 51.8334 182.168 56.6216 161.857C61.3959 141.441 63.9601 127.735 64.3142 120.737C64.4759 119.539 62.4027 119.227 58.0945 119.799C55.3625 120.161 51.2538 121.028 45.7684 122.398C44.2061 122.712 42.7034 123.072 41.2603 123.477C39.9082 123.764 38.9239 124.001 38.3074 124.19L37.5193 124.295C38.9551 124.639 39.7813 125.224 39.998 126.051C40.2008 126.773 40.179 128.219 39.9326 130.39C39.8833 130.825 39.8201 131.154 39.743 131.378C29.3132 182.485 24.3076 209.615 24.7262 212.768L24.768 213.083L24.8517 213.713C25.0126 214.12 25.107 214.428 25.1349 214.638C25.3163 216.004 24.8291 216.764 23.6732 216.917C22.2021 217.113 19.7964 216.309 16.4562 214.507C15.1887 213.82 14.4085 212.373 14.1155 210.167C13.8783 208.38 15.7595 194.764 19.759 169.318C23.6813 144.097 26.0037 130.582 26.7262 128.776C24.1764 128.9 22.2469 128.461 20.9375 127.459C18.6267 126.162 17.2829 124.095 16.9062 121.258C16.7667 120.207 16.9457 119.542 17.4431 119.262C33.1638 115.25 41.1818 113.223 41.497 113.181C48.447 110.761 54.3913 109.223 59.3299 108.567C62.5873 108.135 65.5258 108.119 68.1454 108.52C70.5547 108.948 72.6312 109.688 74.3748 110.74C76.1044 111.686 77.1511 112.724 77.5147 113.852ZM97.9195 200.001C95.8179 200.281 93.6992 200.027 91.5632 199.242C86.2962 198.23 83.2581 194.677 82.4489 188.582C81.6117 182.278 82.7153 175.288 85.7595 167.612C85.7455 167.507 86.2155 166.215 87.1695 163.736C88.1235 161.257 88.8846 159.338 89.4527 157.979C92.8753 149.933 95.7811 145.644 98.17 145.113C99.3119 144.854 100.755 145.251 102.498 146.303C104.333 147.235 105.695 148.231 106.584 149.289C107.396 150.571 107.843 151.527 107.927 152.158L107.969 152.473C108.025 152.894 108.753 153.545 110.153 154.429C110.854 154.87 113.508 156.336 118.115 158.825C120.531 160.108 121.949 162.326 122.367 165.478C122.521 166.634 122.566 167.377 122.502 167.706C122.669 170.571 121.806 173.733 119.913 177.192C119.211 178.355 118.731 179.167 118.472 179.629L114.865 185.08C108.612 194.358 102.963 199.332 97.9195 200.001ZM94.0262 191.215C96.2328 190.922 99.9439 187.061 105.159 179.632C110.466 172.084 112.959 167.102 112.638 164.685C112.54 163.949 112.134 163.308 111.42 162.761L109.466 162.54C105.768 162.068 103.239 162.351 101.88 163.387C98.4809 165.977 95.6756 172.23 93.4637 182.148C92.6353 185.572 92.3188 188.02 92.5141 189.492C92.6815 190.752 93.1855 191.327 94.0262 191.215ZM136.232 240.948C132.871 239.79 130.473 238.237 129.038 236.289C127.512 234.46 126.721 232.534 126.666 230.509C126.625 228.59 127.022 226.345 127.857 223.775C128.355 221.891 129.541 219.541 131.412 216.727C135.303 211.398 138.369 207.516 140.612 205.079C143.388 201.824 148.455 197.301 155.813 191.512C157.551 190.105 161.727 186.931 168.342 181.989C166.901 179.187 164.583 177.837 161.389 177.94C156.367 177.966 151.399 180.015 146.487 184.089L142.691 188.122C140.449 190.558 138.809 191.899 137.772 192.144C136.027 192.696 134.07 192.047 131.9 190.197C129.834 188.332 128.939 186.419 129.213 184.458C129.298 183.485 129.666 182.634 130.318 181.906C131.074 181.164 132.101 180.439 133.397 179.732C134.694 179.026 135.485 178.546 135.773 178.294C137.602 176.768 140.686 173.418 145.024 168.244C147.148 165.716 149.689 161.904 152.648 156.806C155.53 151.932 156.218 149.061 154.712 148.191C153.893 147.659 152.261 148.25 149.815 149.964C147.657 151.427 145.859 152.789 144.423 154.049C143.743 154.567 142.576 155.844 140.922 157.882C139.373 159.905 138.311 161.169 137.736 161.673C134.877 164.298 132.162 164.391 129.593 161.952C128.151 160.754 127.444 159.458 127.473 158.064C127.606 156.656 127.94 155.542 128.473 154.723C129.005 153.904 129.931 152.819 131.248 151.467C139.245 143.241 146.543 139.011 153.141 138.776C157.281 138.547 160.758 140.171 163.572 143.647C167.128 147.879 164.787 156.424 156.55 169.28C166.252 169.061 172.677 171.951 175.826 177.948C176.61 177.416 177.973 176.808 179.914 176.122C181.946 175.318 184.103 174.657 186.387 174.14C188.776 173.609 190.807 173.607 192.481 174.133C194.26 174.645 195.156 175.756 195.169 177.465C195.211 177.78 194.885 178.144 194.192 178.557C193.484 178.865 192.317 179.341 190.692 179.984C189.066 180.628 187.658 181.296 186.467 181.989C181.506 184.893 178.64 186.664 177.869 187.301C177.691 193.205 177.468 196.764 177.202 197.975C175.445 207.298 171.616 215.505 165.715 222.598C165.623 222.717 165.108 223.266 164.169 224.246C163.23 225.226 162.578 225.955 162.214 226.431C161.288 227.516 160.423 228.647 159.617 229.823C158.796 230.894 157.858 231.072 156.8 230.357C156.695 230.371 156.467 230.669 156.117 231.25C155.766 231.831 155.423 232.465 155.086 233.151C154.75 233.838 154.49 234.3 154.308 234.538C152.247 236.736 149.48 238.44 146.005 239.65C142.544 240.965 139.286 241.398 136.232 240.948ZM141.89 232.818C147.915 229.88 153.438 224.762 158.457 217.466C160.287 214.336 161.416 212.368 161.843 211.563C163.323 209.014 164.81 205.716 166.304 201.668C167.903 197.606 168.661 194.458 168.578 192.223C160.323 199.308 154.114 204.89 149.951 208.972C143.965 215.434 139.917 220.783 137.807 225.02C135.78 228.283 135.089 230.727 135.733 232.353C136.39 234.083 138.443 234.239 141.89 232.818ZM197.907 251.685C192.022 252.467 186.91 251.007 182.569 247.306C178.137 243.724 175.509 238.834 174.686 232.634C174.184 228.851 174.346 226.049 175.174 224.229C175.588 223.318 176.036 223.473 176.519 224.692C179.289 231.06 182.249 235.64 185.4 238.429C188.446 241.233 192.122 242.349 196.431 241.776C200.529 241.232 204.337 238.909 207.855 234.806C211.493 230.794 214.483 225.532 216.827 219.019C221.414 206.861 224.489 194.584 226.051 182.186C226.29 180.764 226.543 178.646 226.811 175.83C227.149 171.936 227.526 168.731 227.94 166.217C228.158 165.439 228.324 163.065 228.438 159.093C225.212 165.403 221.121 172.041 216.165 179.008C211.076 185.779 206.851 189.387 203.488 189.834C201.281 190.127 198.911 189.586 196.376 188.212C193.96 186.928 192.304 185.331 191.408 183.418C190.863 182.528 190.464 181.137 190.213 179.246C189.599 174.622 190.727 168.217 193.596 160.03C196.992 150.17 201.962 142.506 208.508 137.039C210.82 135.128 213.08 134.026 215.286 133.733C220.12 133.091 224.938 134.75 229.741 138.71C231.291 136.687 232.878 135.353 234.503 134.71C234.91 134.549 235.778 134.647 237.109 135.005C238.44 135.363 239.455 135.763 240.155 136.205C241.899 137.256 242.882 138.623 243.105 140.304C243.329 141.985 242.637 144.43 241.032 147.637C239.545 150.935 238.7 153.026 238.496 153.908C238.142 160.906 237.36 169.51 236.149 179.723C235.115 188.842 234.243 195.16 233.533 198.676C226.279 231.825 214.404 249.495 197.907 251.685ZM200.572 179.955C202.989 179.635 207.254 175.112 213.367 166.387C219.543 157.334 223.697 150.366 225.829 145.485C223.28 144.006 221.48 143.336 220.43 143.475C217.382 143.88 213.261 148.277 208.066 156.665L204.837 162.548C203.295 165.426 202.022 168.321 201.019 171.235C199.665 174.729 199.078 177.16 199.26 178.526C199.399 179.577 199.837 180.053 200.572 179.955ZM256.599 241.005C257.593 242.049 257.159 242.802 255.295 243.263C252.199 244.102 249.201 243.271 246.303 240.768C244.818 239.255 243.754 237.685 243.111 236.059C241.544 232.311 241.334 225.495 242.481 215.612C242.467 215.507 242.485 215.238 242.534 214.803C242.492 214.488 242.517 214.271 242.608 214.152C244.283 199.387 247.462 181.856 252.145 161.559C254.343 151.537 256.811 141.532 259.548 131.545C261.85 123.112 263.741 118.424 265.219 117.479C266.319 116.905 268.547 116.77 271.902 117.073C274.507 117.368 275.168 119.526 273.884 123.546C272.299 127.713 269.264 137.472 264.78 152.824C267.36 148.097 269.607 144.484 271.521 141.985C276.996 134.093 281.737 129.133 285.745 127.104C286.635 126.558 287.868 126.18 289.444 125.971C292.911 125.511 296.077 126.801 298.94 129.843C301.67 132.688 303.045 136.195 303.064 140.363C303.307 143.004 302.51 147.066 300.672 152.549C298.897 157.704 296.194 162.714 292.563 167.581C288.918 172.342 284.889 175.015 280.475 175.601C276.692 176.104 273.744 174.838 271.63 171.804C270.315 169.947 270.214 168.784 271.328 168.315C271.51 168.077 271.773 168.042 272.116 168.21C275.142 168.45 278.112 167.468 281.027 165.263C283.928 162.953 286.122 160.149 287.609 156.85C291.733 147.641 293.428 140.68 292.695 135.965C292.486 134.389 292.014 133.65 291.278 133.747C289.282 134.012 286.146 136.567 281.87 141.412C275.562 148.666 270.15 157.03 265.634 166.505C261.223 175.966 258.237 185.291 256.677 194.48C254.161 209.357 252.857 219.261 252.763 224.192C252.36 231.624 253.638 237.228 256.599 241.005ZM361.22 168.409C356.667 169.548 352.545 168.705 348.855 165.88C345.256 162.936 342.856 158.55 341.654 152.722C333.929 163.799 326.774 169.507 320.19 169.847C316.036 169.971 313.095 168.757 311.366 166.207C309.518 163.565 308.868 160.283 309.417 156.361C309.951 152.333 311.096 148.064 312.849 143.554C314.708 139.03 317.029 134.766 319.812 130.761C321.957 127.589 324.428 124.855 327.224 122.559C330.02 120.263 333.071 118.681 336.378 117.814C339.671 116.843 342.868 117.167 345.97 118.786C347.071 116.608 349.54 116.281 353.378 117.803C356.964 119.037 358.378 120.828 357.62 123.174C355.544 128.476 353.937 134.089 352.799 140.014C351.506 146.388 351.125 151.571 351.656 155.564C351.921 157.56 352.543 159.028 353.523 159.967C354.49 160.802 355.859 161.047 357.631 160.705C358.367 160.608 359.246 160.384 360.269 160.034C361.278 159.579 362.273 159.02 363.254 158.355C364.235 157.69 365.261 156.965 366.334 156.181C367.406 155.397 368.373 154.627 369.235 153.871C370.188 152.996 371.095 152.181 371.957 151.425C372.924 150.655 373.688 149.965 374.249 149.356C374.915 148.733 375.43 148.184 375.794 147.707L376.52 147.13C377.172 146.402 377.539 146.353 377.623 146.983C377.755 148.784 376.244 152.299 373.089 157.53C369.219 163.818 365.263 167.444 361.22 168.409ZM319.418 159.203C319.319 160.071 319.351 160.709 319.512 161.115C319.764 161.403 320.191 161.399 320.793 161.105C323.715 159.755 328.005 155.015 333.662 146.886C339.838 137.832 342.696 131.572 342.235 128.104C340.765 126.695 338.464 127.482 335.331 130.464C332.184 133.342 329.054 137.553 325.941 143.099C322.814 148.54 320.64 153.908 319.418 159.203ZM377.683 158.364C375.107 155.07 373.737 150.387 373.572 144.313C373.393 138.135 374.009 131.905 375.421 125.622C377.148 117.694 379.293 109.283 381.854 100.388C390.627 69.8174 400.162 53.8484 410.459 52.4811C415.503 51.8114 419.316 53.5507 421.899 57.6988C423.642 60.3546 423.474 65.9372 421.396 74.4467C419.227 83.0753 415.1 91.8569 409.015 100.792C407.676 102.787 406.042 104.982 404.115 107.377C402.93 108.924 400.95 111.326 398.175 114.581C395.49 117.718 393.829 119.703 393.191 120.536C392.462 121.488 389.925 124.124 385.58 128.444C384.59 131.462 383.649 136.453 382.756 143.415C387.896 133.002 393.311 125.867 399.001 122.01C401.446 120.296 404.059 119.842 406.84 120.649C409.725 121.442 411.955 123.338 413.529 126.337C414.957 129.034 414.699 133.132 412.756 138.629C411.893 140.99 410.238 143.829 407.792 147.148C405.331 150.362 402.384 153.533 398.95 156.662C395.502 159.687 391.894 161.502 388.125 162.11C384.461 162.703 380.981 161.454 377.683 158.364ZM386.111 117.948L390.232 112.749C392.693 109.535 394.053 107.697 394.312 107.235L397.572 102.792C399.576 100.174 400.793 98.4616 401.22 97.6563L407.373 87.2156C412 78.5814 414.47 71.4099 414.781 65.7013C415.063 62.9906 414.766 61.1588 413.891 60.2057C413.121 59.2386 412.042 59.168 410.655 59.9937C409.373 60.8056 408.213 62.1358 407.175 63.9845C405.036 68.011 401.793 75.3922 397.444 86.128C392.927 97.207 389.149 107.813 386.111 117.948ZM396.823 146.68C397.474 145.951 398.529 144.635 399.987 142.731C400.99 141.421 402.231 139.492 403.71 136.943C405.112 134.619 405.495 133.071 404.858 132.3C403.675 130.639 401.195 132.091 397.417 136.656C395.475 138.946 393.663 141.806 391.98 145.238C390.486 149.285 390.481 151.264 391.966 151.174C393.346 151.098 394.965 149.6 396.823 146.68ZM462.521 155.119C461.47 155.258 460.227 155.156 458.791 154.812C454.757 153.423 451.768 150.237 449.824 145.256C448.949 142.699 448.366 140.317 448.073 138.11C447.794 136.009 447.658 133.781 447.667 131.428C441.873 145.777 435.719 153.384 429.204 154.249C426.367 154.626 423.705 153.91 421.22 152.102C418.734 150.293 417.303 147.97 416.926 145.133C416.437 143.059 416.802 140.979 418.022 138.892C419.242 136.806 420.917 135.728 423.046 135.659C425.281 135.576 427.231 136.975 428.896 139.855C429.575 140.941 430.283 141.435 431.018 141.337C431.256 141.519 431.61 141.366 432.08 140.875C432.535 140.28 433.075 139.514 433.699 138.575C434.309 137.532 434.705 136.891 434.887 136.653C439.136 129.994 442.495 122.277 444.966 113.501C445.745 110.511 447.403 106.494 449.942 101.452C450.201 100.99 450.594 100.724 451.119 100.654C452.485 100.473 454.12 101.111 456.025 102.569C458.153 104.105 459.294 105.45 459.448 106.606C459.923 108.575 459.259 112.833 457.455 119.381C456.507 124.319 456.291 128.732 456.807 132.62C457.212 135.667 458.096 138.704 459.46 141.731C460.986 145.164 463.009 146.713 465.531 146.378C468.683 145.96 473.477 141.795 479.911 133.883C481.243 132.637 481.964 132.434 482.076 133.275C482.257 134.641 481.317 137.225 479.256 141.027C477.195 144.83 474.72 147.938 471.833 150.353C468.567 153.139 465.463 154.728 462.521 155.119ZM523.212 145.777C519.576 146.58 516.246 146.06 513.221 144.216C510.182 142.267 508.355 138.981 507.742 134.358C507.295 130.995 507.63 126.674 508.747 121.393C506.748 126.47 503.393 132.208 498.682 138.608C494.035 144.679 489.61 147.993 485.406 148.551C478.681 149.444 474.288 146.552 472.225 139.876C471.791 138.222 471.554 137.238 471.512 136.923C470.898 132.299 472.22 129.771 475.477 129.339C477.264 129.102 479.014 130.206 480.729 132.651C482.64 134.964 484.226 136.037 485.487 135.869C487.694 135.576 490.055 134.033 492.571 131.239L494.937 128.519L500.719 121.336C499.08 121.874 497.525 122.241 496.054 122.436C489.749 123.274 486.262 121.17 485.592 116.127C485.034 111.923 486.851 107.084 491.043 101.609C495.326 96.0144 500.725 92.7847 507.239 91.9197C514.385 90.9709 518.257 92.7557 518.857 97.2741C519.192 99.7959 518.367 102.846 516.383 106.424C518.548 105.816 519.735 105.498 519.945 105.47C521.732 105.233 522.604 105.759 522.561 107.048C522.589 107.258 522.364 107.983 521.887 109.222C521.396 110.357 520.783 111.775 520.046 113.477C519.415 115.164 518.913 116.621 518.541 117.847C516.793 124.815 516.122 129.823 516.526 132.871C516.805 134.972 517.789 136.339 519.477 136.97C520.268 137.293 521.399 137.356 522.87 137.161C525.392 136.826 527.981 135.787 530.637 134.045C532.325 133.072 534.137 131.815 536.071 130.275C538.005 128.735 539.547 127.461 540.696 126.453C541.845 125.445 542.472 124.934 542.577 124.92C543.257 124.402 543.625 124.354 543.681 124.774C543.785 126.364 542.067 129.533 538.527 134.28C533.515 140.827 528.41 144.659 523.212 145.777ZM499.546 114.915C501.543 114.65 503.508 113.748 505.442 112.208C507.467 110.549 508.855 108.921 509.606 107.324C509.852 105.153 509.905 103.542 509.766 102.491C509.501 100.495 508.422 99.622 506.531 99.8731C504.009 100.208 501.452 101.884 498.858 104.902C496.37 107.905 495.272 110.511 495.565 112.717C495.802 114.504 497.129 115.236 499.546 114.915ZM556.399 141.531C551.25 142.214 546.344 141.101 541.681 138.192C539.118 136.607 537.336 134.866 536.335 132.967C535.335 131.068 534.625 128.543 534.207 125.39C533.132 117.299 535.536 109.228 541.417 101.176C547.403 93.1094 553.444 88.6718 559.538 87.8625C561.325 87.6254 563.069 87.875 564.77 88.6114C567.145 89.5793 568.716 91.3489 569.485 93.92C569.646 94.3264 569.817 95.2125 569.999 96.5785C570.32 98.9953 570.227 101.52 569.721 104.154C568.963 108.104 567.353 111.686 564.893 114.9C562.537 118.1 559.577 120.364 556.011 121.693C555.709 121.84 555.033 121.983 553.983 122.123C550.515 122.583 547.297 122.102 544.327 120.678C543.281 126.484 544.133 130.488 546.885 132.689C548.327 133.888 550.624 134.278 553.777 133.859C564.074 132.492 573.233 126.571 581.252 116.096C581.343 115.977 581.521 116.114 581.787 116.506C582.437 118.986 581.665 122.029 579.471 125.636L578.945 126.507C576.54 130.142 573.18 133.421 568.863 136.347C564.547 139.273 560.392 141 556.399 141.531ZM547.074 113.577C549.329 114.454 551.784 113.219 554.441 109.872C555.773 108.626 557.543 106.252 559.751 102.751C562.156 99.117 563.032 96.8619 562.381 95.986C562.165 95.1593 560.953 95.6945 558.745 97.5916C556.629 99.3696 554.34 101.866 551.88 105.079C549.525 108.279 547.923 111.112 547.074 113.577ZM645.664 133.046C643.563 133.325 641.542 133.006 639.602 132.087C633.565 130.108 629.835 123.76 628.412 113.042C624.141 123.554 619.819 129.26 615.448 130.162C612.73 130.629 610.177 129.525 607.79 126.848C605.403 124.171 603.972 121.046 603.498 117.473C603.33 116.212 603.278 115.417 603.341 115.088C602.274 119.935 600.405 123.979 597.734 127.22C595.169 130.448 591.942 132.32 588.054 132.836C585.322 133.199 582.472 132.669 579.503 131.245C576.624 129.703 574.976 127.355 574.558 124.203C574.251 121.891 574.669 119.804 575.811 117.941C576.94 115.974 578.555 114.85 580.657 114.571C582.758 114.292 584.715 115.743 586.528 118.924C587.207 120.01 587.914 120.505 588.65 120.407C590.961 120.1 593.324 116.151 595.738 108.559C598.397 100.4 600.464 92.2126 601.94 83.9969C602.558 80.5999 603.76 78.7829 605.547 78.5457C606.387 78.4341 607.826 79.2054 609.864 80.8596C611.768 82.3176 612.783 83.5194 612.909 84.4651C613.09 85.8312 612.433 90.1422 610.937 97.3982C610.797 97.9515 610.378 101.643 609.681 108.472C609.217 111.421 609.208 113.774 609.656 115.533C610.11 118.146 611.282 119.327 613.174 119.075C614.645 118.88 616.337 117.533 618.251 115.033C620.269 112.519 622.036 109.718 623.551 106.63C626.776 100.321 628.762 95.1384 629.506 91.0831C631.375 80.9974 633.599 75.1952 636.177 73.6766C637.487 73.0749 639.081 73.398 640.957 74.6458C642.953 75.9848 644.076 77.6 644.327 79.4914C644.495 80.7523 644.252 82.5489 643.6 84.8811C642.947 87.2133 642.021 89.9026 640.821 92.949L638.622 99.3361C636.769 106.319 636.1 111.754 636.617 115.642C637.244 120.37 639.523 122.634 643.453 122.433C646.227 122.386 649.012 121.214 651.808 118.918C654.695 116.503 658.249 112.663 662.468 107.397C662.833 106.921 663.123 107.097 663.34 107.923C663.878 111.167 662.355 115.806 658.773 121.843L655.965 126.065C652.986 130.203 649.552 132.53 645.664 133.046ZM713.359 120.69C707.58 121.457 702.965 120.519 699.513 117.877C695.466 114.778 693.079 110.497 692.354 105.033C691.684 99.9894 692.367 94.6593 694.401 89.0426C696.435 83.426 699.205 78.5137 702.71 74.3058C706.41 69.9649 709.837 67.5852 712.989 67.1666C715.511 66.8318 718.12 67.5547 720.816 69.3353C723.883 71.4944 725.598 73.94 725.96 76.672C726.211 78.5634 725.286 79.6486 723.185 79.9277L720.936 79.9054C720.173 79.7929 719.29 79.5893 718.289 79.2946C717.273 78.8948 716.66 78.7088 716.45 78.7367C715.925 78.8065 714.983 79.3593 713.623 80.3953C712.383 81.5224 710.251 84.7994 707.229 90.2264C703.261 97.383 701.57 103.168 702.156 107.581C702.393 109.368 703.068 110.828 704.181 111.964C705.399 113.085 707.059 113.506 709.161 113.227C715.886 112.334 725.072 106.624 736.719 96.0948C736.916 95.9618 737.08 95.9935 737.213 96.1897C737.346 96.3859 737.441 96.6941 737.496 97.1144C737.831 99.6363 736.803 102.767 734.413 106.506C732.786 108.754 729.825 111.82 725.529 115.705C722.46 118.358 718.403 120.02 713.359 120.69Z" fill="black"/>
<path d="M75.379 378.635C71.8817 379.099 69.2119 378.775 67.3696 377.664C66.6592 377.42 65.9599 377.258 65.2716 377.18C64.6055 377.269 64.0115 377.263 63.4898 377.163C62.9902 377.229 61.6527 376.729 59.4773 375.662C57.3241 374.761 54.4162 373.283 50.7538 371.227C45.249 368.06 42.0102 362.813 41.0372 355.485C40.4844 351.322 41.1239 349.119 42.9559 348.875C44.1216 348.72 45.5255 349.72 47.1673 351.875C48.1783 350.554 55.1394 339.801 68.0506 319.614C58.5193 310.372 53.0681 300.588 51.6971 290.263C50.3924 280.437 53.4171 271.307 60.771 262.874C68.2811 253.064 76.6993 247.54 86.0254 246.302C91.0216 245.638 95.7562 246.196 100.229 247.975C104.869 249.731 107.676 251.731 108.652 253.974C113.448 254.354 116.111 256.543 116.642 260.54C117.217 264.87 115.626 270.758 111.87 278.206C107.435 286.929 103.057 294.798 98.7345 301.812C93.7121 309.936 90.8118 314.897 90.0337 316.695C95.5371 322.404 98.8768 325.858 100.053 327.058C104.946 332.001 107.802 337.553 108.62 343.715C109.792 352.542 105.735 361.554 96.4489 370.753L95.0163 371.451C87.0875 375.555 80.5417 377.949 75.379 378.635ZM75.6682 306.146C77.4456 304.215 82.6065 296.497 91.1511 282.99C97.5736 272.647 100.674 266.643 100.453 264.977C100.232 263.312 98.2895 262.722 94.6256 263.209C93.5822 263.009 92.311 263.008 90.8122 263.207C85.816 263.87 81.5848 266.466 78.1186 270.993L75.9523 273.823C75.208 274.6 73.7748 276.57 71.6527 279.733C69.6411 283.728 68.8785 287.558 69.365 291.222C69.9399 295.552 72.041 300.526 75.6682 306.146ZM74.9872 364.196C80.816 363.423 85.5689 360.927 89.2459 356.711C92.9229 352.494 94.5292 348.637 94.0648 345.14C93.9321 344.14 93.5718 343.341 92.9837 342.741C91.9962 341.686 90.7368 340.497 89.2055 339.175C87.8186 337.665 86.3595 336.248 84.8282 334.926C83.4634 333.582 82.5813 332.683 82.1819 332.227C70.4274 348.363 64.7934 358.263 65.2799 361.926C65.4126 362.926 66.0117 363.609 67.0773 363.976C69.6859 364.477 72.3226 364.55 74.9872 364.196ZM299.554 343.784C296.223 344.227 293.021 343.72 289.946 342.264C280.378 339.128 274.467 329.066 272.211 312.08C265.441 328.74 258.592 337.784 251.664 339.212C247.356 339.954 243.31 338.203 239.527 333.96C235.743 329.717 233.476 324.764 232.724 319.102C232.458 317.104 232.376 315.844 232.476 315.322C230.784 323.003 227.822 329.413 223.59 334.551C219.524 339.667 214.41 342.633 208.248 343.452C203.918 344.027 199.4 343.186 194.694 340.93C190.133 338.485 187.52 334.764 186.857 329.768C186.37 326.104 187.033 322.796 188.844 319.844C190.633 316.726 193.193 314.945 196.524 314.503C199.854 314.061 202.956 316.36 205.829 321.402C206.905 323.124 208.025 323.907 209.191 323.752C212.855 323.266 216.6 317.006 220.425 304.974C224.64 292.043 227.916 279.067 230.255 266.046C231.235 260.662 233.14 257.782 235.971 257.406C237.304 257.229 239.584 258.451 242.814 261.073C245.832 263.384 247.441 265.289 247.64 266.788C247.927 268.953 246.885 275.785 244.515 287.285C244.292 288.162 243.628 294.013 242.523 304.836C241.788 309.51 241.775 313.24 242.484 316.027C243.203 320.168 245.062 322.04 248.06 321.642C250.391 321.332 253.073 319.196 256.106 315.235C259.306 311.251 262.106 306.812 264.506 301.917C269.619 291.917 272.765 283.704 273.945 277.277C276.907 261.292 280.431 252.096 284.518 249.689C286.595 248.735 289.12 249.247 292.094 251.225C295.257 253.347 297.037 255.907 297.435 258.905C297.701 260.903 297.316 263.751 296.282 267.447C295.247 271.143 293.78 275.406 291.878 280.234L288.393 290.357C285.456 301.424 284.396 310.038 285.215 316.2C286.21 323.694 289.821 327.282 296.05 326.963C300.446 326.888 304.86 325.031 309.291 321.392C313.867 317.564 319.499 311.478 326.187 303.133C326.765 302.379 327.225 302.656 327.569 303.967C328.421 309.107 326.008 316.461 320.33 326.027L315.88 332.719C311.158 339.278 305.716 342.966 299.554 343.784ZM398.119 326.884C390.902 328.689 384.369 327.354 378.521 322.877C372.817 318.211 369.013 311.259 367.109 302.021C354.865 319.578 343.525 328.625 333.089 329.163C326.506 329.359 321.844 327.436 319.104 323.394C316.175 319.207 315.146 314.005 316.015 307.789C316.862 301.406 318.676 294.64 321.455 287.492C324.401 280.322 328.079 273.563 332.49 267.215C335.89 262.188 339.806 257.855 344.237 254.216C348.669 250.577 353.505 248.07 358.746 246.697C363.964 245.156 369.032 245.67 373.949 248.237C375.694 244.785 379.607 244.266 385.69 246.678C391.373 248.635 393.614 251.473 392.413 255.191C389.122 263.593 386.575 272.49 384.771 281.881C382.723 291.983 382.119 300.198 382.959 306.526C383.38 309.69 384.366 312.017 385.92 313.505C387.451 314.827 389.621 315.217 392.43 314.674C393.596 314.52 394.99 314.165 396.611 313.611C398.21 312.89 399.787 312.003 401.341 310.949C402.896 309.895 404.523 308.747 406.223 307.505C407.922 306.262 409.455 305.042 410.821 303.844C412.331 302.457 413.77 301.164 415.136 299.966C416.669 298.745 417.879 297.653 418.768 296.687C419.823 295.7 420.64 294.829 421.217 294.074L422.367 293.159C423.4 292.005 423.983 291.927 424.115 292.927C424.325 295.78 421.929 301.352 416.929 309.642C410.795 319.608 404.525 325.355 398.119 326.884ZM331.866 312.293C331.71 313.67 331.759 314.68 332.014 315.324C332.414 315.78 333.091 315.774 334.046 315.309C338.676 313.169 345.475 305.656 354.441 292.772C364.229 278.423 368.759 268.5 368.029 263.005C365.699 260.772 362.051 262.019 357.086 266.746C352.099 271.306 347.138 277.981 342.205 286.771C337.248 295.394 333.802 303.902 331.866 312.293ZM426.734 416.126C428.31 417.781 427.621 418.974 424.668 419.705C419.76 421.034 415.009 419.716 410.415 415.751C408.063 413.351 406.377 410.864 405.357 408.287C402.873 402.347 402.54 391.544 404.359 375.881C404.336 375.714 404.364 375.287 404.442 374.599C404.376 374.099 404.415 373.755 404.56 373.566C407.215 350.165 412.253 322.38 419.676 290.211C423.159 274.327 427.07 258.47 431.408 242.641C435.057 229.277 438.053 221.846 440.396 220.348C442.14 219.439 445.67 219.224 450.988 219.705C455.117 220.173 456.164 223.593 454.129 229.964C451.617 236.568 446.807 252.036 439.7 276.367C443.789 268.876 447.35 263.149 450.383 259.188C459.061 246.681 466.575 238.819 472.927 235.603C474.338 234.738 476.292 234.139 478.79 233.808C484.286 233.078 489.302 235.124 493.84 239.944C498.168 244.454 500.346 250.011 500.376 256.617C500.762 260.803 499.499 267.241 496.585 275.932C493.772 284.101 489.488 292.042 483.733 299.755C477.956 307.301 471.57 311.538 464.576 312.467C458.58 313.263 453.908 311.257 450.557 306.448C448.472 303.505 448.312 301.662 450.077 300.919C450.366 300.542 450.783 300.486 451.327 300.753C456.122 301.133 460.83 299.576 465.451 296.081C470.049 292.42 473.526 287.976 475.882 282.748C482.418 268.153 485.105 257.119 483.944 249.647C483.612 247.149 482.863 245.978 481.697 246.132C478.533 246.552 473.563 250.602 466.787 258.281C456.789 269.777 448.211 283.033 441.053 298.05C434.062 313.044 429.33 327.824 426.858 342.388C422.871 365.966 420.803 381.663 420.654 389.478C420.015 401.257 422.042 410.139 426.734 416.126ZM567.433 217.208C564.768 217.562 563.058 217.45 562.304 216.872C559.795 215.849 558.243 213.09 557.646 208.593C556.982 203.597 557.417 200.489 558.95 199.268C559.383 198.702 560.743 198.098 563.03 197.455C565.462 196.624 567.833 195.97 570.142 195.494C572.452 195.018 574.939 194.603 577.603 194.249C580.246 193.729 581.734 193.447 582.067 193.403C596.246 189.147 605.001 186.798 608.332 186.356C616.992 185.206 621.609 186.796 622.184 191.126C622.405 192.792 622.271 194.335 621.782 195.755C622.003 197.421 617.117 200.188 607.123 204.057C597.462 207.882 589.534 210.714 583.338 212.554L580.407 213.451C578.308 214.238 575.96 215.059 573.362 215.912C570.741 216.599 568.765 217.031 567.433 217.208ZM527.48 314.537C525.482 314.803 523.339 313.986 521.053 312.086C518.057 309.942 516.205 306.205 515.498 300.876C515.266 297.856 516.136 290.368 518.108 278.413C520.957 264.137 523.874 250.362 526.856 237.086C526.978 236.73 527.095 235.698 527.207 233.988C527.486 232.257 527.692 230.619 527.826 229.076C528.105 227.345 528.383 225.613 528.662 223.881C529.107 222.127 529.596 220.706 530.129 219.619C530.641 218.365 531.313 217.682 532.146 217.572C534.178 216.285 537.131 216.825 541.004 219.192C544.877 221.559 546.841 223.586 546.896 225.273C547.117 226.939 546.437 230.757 544.858 236.729C543.445 242.679 542.688 245.915 542.588 246.436C540.507 255.017 539.021 262.332 538.129 268.382L552.797 244.827C560.186 232.83 565.978 227.315 570.174 228.283C577.689 229.997 581.96 235.362 582.988 244.377C583.077 245.043 583.087 246.397 583.019 248.44C583.096 250.294 583.156 251.388 583.201 251.721C583.221 254.429 583.007 260.474 582.558 269.855C585.446 266.082 587.846 262.459 589.758 258.985L593.708 252.359L597.008 246.582L601.642 239.358C605.353 234.12 608.79 231.291 611.954 230.871C613.62 230.649 615.174 230.867 616.617 231.523C622.055 234.19 625.051 237.605 625.604 241.769C625.714 242.601 625.033 248.962 623.562 260.852C623.249 263.605 623.159 265.481 623.292 266.48C623.58 268.645 624.473 269.628 625.972 269.429C627.137 269.274 631.463 266.751 638.948 261.859C647.011 256.213 654.18 250.854 660.455 245.784C661.677 244.775 662.704 244.215 663.537 244.104C664.203 244.016 664.603 244.471 664.735 245.47C665.023 247.635 663.466 251.231 660.067 256.259C656.667 261.286 652.09 266.385 646.337 271.555C635.618 281.452 628.094 286.688 623.764 287.263C614.771 288.457 609.673 281.338 608.472 265.906C608.361 265.073 608.223 263.397 608.058 260.876C608.037 258.168 607.961 256.314 607.828 255.314L592.829 276.372C591.962 277.504 590.79 279.524 589.312 282.431C587.812 285.173 586.434 287.559 585.178 289.59C583.901 291.454 582.69 292.547 581.546 292.868C579.592 293.467 577.782 293.877 576.117 294.098C570.954 294.783 568.09 293.638 567.526 290.663C567.205 289.519 566.972 287.77 566.829 285.417C565.868 276.901 565.719 265.566 566.382 251.412C561.871 258.281 557.159 266.194 552.247 275.151C541.912 294.318 536.444 305.467 535.843 308.597C532.932 312.203 530.145 314.184 527.48 314.537ZM733.31 282.377C726.093 284.183 719.56 282.847 713.712 278.37C708.008 273.704 704.204 266.752 702.299 257.515C690.056 275.071 678.716 284.118 668.28 284.657C661.697 284.853 657.035 282.93 654.295 278.887C651.366 274.7 650.337 269.499 651.206 263.282C652.053 256.899 653.867 250.133 656.646 242.985C659.592 235.815 663.27 229.056 667.681 222.709C671.081 217.681 674.997 213.348 679.428 209.709C683.86 206.07 688.696 203.564 693.937 202.19C699.155 200.65 704.223 201.163 709.14 203.73C710.885 200.279 714.798 199.759 720.881 202.171C726.564 204.128 728.805 206.966 727.604 210.685C724.313 219.087 721.766 227.984 719.962 237.375C717.914 247.476 717.31 255.691 718.15 262.02C718.57 265.184 719.557 267.51 721.111 268.999C722.642 270.321 724.812 270.71 727.621 270.168C728.787 270.013 730.18 269.659 731.802 269.104C733.401 268.384 734.978 267.496 736.532 266.443C738.087 265.389 739.714 264.241 741.414 262.998C743.113 261.756 744.645 260.535 746.012 259.337C747.522 257.95 748.961 256.658 750.327 255.459C751.859 254.239 753.07 253.146 753.959 252.181C755.014 251.193 755.83 250.322 756.408 249.568L757.558 248.652C758.591 247.498 759.174 247.421 759.306 248.42C759.516 251.273 757.12 256.845 752.12 265.135C745.986 275.101 739.716 280.849 733.31 282.377ZM667.057 267.787C666.901 269.163 666.95 270.174 667.205 270.818C667.605 271.273 668.282 271.268 669.237 270.802C673.867 268.662 680.666 261.15 689.632 248.266C699.42 233.916 703.95 223.994 703.22 218.498C700.89 216.265 697.242 217.512 692.277 222.239C687.29 226.799 682.329 233.474 677.395 242.264C672.439 250.887 668.993 259.395 667.057 267.787ZM787.918 222.759C787.339 226.056 785.407 226.821 782.121 225.054C777.915 222.731 775.669 219.216 775.383 214.509C775.198 206.738 779.151 185.452 787.241 150.653C794.585 119.172 798.708 101.084 799.61 96.3884C799.911 94.8232 800.977 93.919 802.809 93.6758C805.307 93.3441 808.126 94.1561 811.267 96.1117C814.408 98.0673 816.21 100.794 816.675 104.291C816.94 106.29 815.182 113.471 811.401 125.837C808.798 134.317 804.416 149.813 798.253 172.324C792.947 192.348 789.502 209.16 787.918 222.759ZM772.403 274.39C769.905 274.722 767.774 273.988 766.009 272.189C764.223 270.223 763.12 267.658 762.7 264.493C762.213 260.829 763.331 257.122 766.053 253.371C768.753 249.454 772.184 247.219 776.348 246.666C782.177 245.892 785.511 248.669 786.352 254.998C786.86 258.828 785.454 262.913 782.132 267.252C778.81 271.591 775.567 273.97 772.403 274.39Z" fill="url(#paint1_linear_242_4125)"/>
<defs>
<linearGradient id="paint0_linear_242_4125" x1="56.001" y1="452" x2="814.136" y2="321.873" gradientUnits="userSpaceOnUse">
<stop stop-color="#F84A00"/>
<stop offset="1" stop-color="#F37B20"/>
</linearGradient>
<linearGradient id="paint1_linear_242_4125" x1="39.4017" y1="330.245" x2="808.349" y2="224.801" gradientUnits="userSpaceOnUse">
<stop stop-color="#F84A00"/>
<stop offset="1" stop-color="#F37B20"/>
</linearGradient>
</defs>
</svg>
